%TF.GenerationSoftware,KiCad,Pcbnew,10.0.3*%
%TF.CreationDate,2026-06-12T02:26:47+05:00*%
%TF.ProjectId,Battery_Powered_3.3V_Regulator,42617474-6572-4795-9f50-6f7765726564,rev?*%
%TF.SameCoordinates,Original*%
%TF.FileFunction,Drillmap*%
%TF.FilePolarity,Positive*%
%FSLAX45Y45*%
G04 Gerber Fmt 4.5, Leading zero omitted, Abs format (unit mm)*
G04 Created by KiCad (PCBNEW 10.0.3) date 2026-06-12 02:26:47*
%MOMM*%
%LPD*%
G01*
G04 APERTURE LIST*
%ADD10C,0.050000*%
%ADD11C,0.200000*%
%ADD12C,0.100000*%
G04 APERTURE END LIST*
D10*
X12746478Y-9975825D02*
G75*
G02*
X13046478Y-9675828I300002J-5D01*
G01*
X12746478Y-10807500D02*
X12746478Y-9975825D01*
X13046478Y-9675825D02*
X16023522Y-9675825D01*
X13046478Y-11107500D02*
G75*
G02*
X12746480Y-10807500I2J300000D01*
G01*
X16023522Y-9675825D02*
G75*
G02*
X16323525Y-9975825I-2J-300005D01*
G01*
X16023522Y-11107500D02*
X13046478Y-11107500D01*
X16323522Y-9975825D02*
X16323522Y-10807500D01*
X16323522Y-10807500D02*
G75*
G02*
X16023522Y-11107492I-300002J10D01*
G01*
D11*
D12*
X14945000Y-10715000D02*
X14965000Y-10735000D01*
X14965000Y-10715000D02*
X14945000Y-10735000D01*
X14945000Y-10785000D02*
X14965000Y-10805000D01*
X14965000Y-10785000D02*
X14945000Y-10805000D01*
X14947500Y-10640000D02*
X14967500Y-10660000D01*
X14967500Y-10640000D02*
X14947500Y-10660000D01*
X14950000Y-10425000D02*
X14970000Y-10445000D01*
X14970000Y-10425000D02*
X14950000Y-10445000D01*
X14950000Y-10477500D02*
X14970000Y-10497500D01*
X14970000Y-10477500D02*
X14950000Y-10497500D01*
X14950000Y-10577500D02*
X14970000Y-10597500D01*
X14970000Y-10577500D02*
X14950000Y-10597500D01*
X14980354Y-10526749D02*
X15000354Y-10546749D01*
X15000354Y-10526749D02*
X14980354Y-10546749D01*
X15012500Y-10425000D02*
X15032500Y-10445000D01*
X15032500Y-10425000D02*
X15012500Y-10445000D01*
X15012500Y-10477500D02*
X15032500Y-10497500D01*
X15032500Y-10477500D02*
X15012500Y-10497500D01*
X15012500Y-10577500D02*
X15032500Y-10597500D01*
X15032500Y-10577500D02*
X15012500Y-10597500D01*
X15012500Y-10642500D02*
X15032500Y-10662500D01*
X15032500Y-10642500D02*
X15012500Y-10662500D01*
X15012500Y-10715000D02*
X15032500Y-10735000D01*
X15032500Y-10715000D02*
X15012500Y-10735000D01*
X15015000Y-10785000D02*
X15035000Y-10805000D01*
X15035000Y-10785000D02*
X15015000Y-10805000D01*
X12920000Y-10550000D02*
G75*
G02*
X12880000Y-10550000I-20000J0D01*
G01*
X12880000Y-10550000D02*
G75*
G02*
X12920000Y-10550000I20000J0D01*
G01*
X12920000Y-10700000D02*
G75*
G02*
X12880000Y-10700000I-20000J0D01*
G01*
X12880000Y-10700000D02*
G75*
G02*
X12920000Y-10700000I20000J0D01*
G01*
X12920000Y-10850000D02*
G75*
G02*
X12880000Y-10850000I-20000J0D01*
G01*
X12880000Y-10850000D02*
G75*
G02*
X12920000Y-10850000I20000J0D01*
G01*
X12941670Y-11001294D02*
G75*
G02*
X12901670Y-11001294I-20000J0D01*
G01*
X12901670Y-11001294D02*
G75*
G02*
X12941670Y-11001294I20000J0D01*
G01*
X13070000Y-10550000D02*
G75*
G02*
X13030000Y-10550000I-20000J0D01*
G01*
X13030000Y-10550000D02*
G75*
G02*
X13070000Y-10550000I20000J0D01*
G01*
X13070000Y-10700000D02*
G75*
G02*
X13030000Y-10700000I-20000J0D01*
G01*
X13030000Y-10700000D02*
G75*
G02*
X13070000Y-10700000I20000J0D01*
G01*
X13070000Y-10850000D02*
G75*
G02*
X13030000Y-10850000I-20000J0D01*
G01*
X13030000Y-10850000D02*
G75*
G02*
X13070000Y-10850000I20000J0D01*
G01*
X13070000Y-11040000D02*
G75*
G02*
X13030000Y-11040000I-20000J0D01*
G01*
X13030000Y-11040000D02*
G75*
G02*
X13070000Y-11040000I20000J0D01*
G01*
X13220000Y-10550000D02*
G75*
G02*
X13180000Y-10550000I-20000J0D01*
G01*
X13180000Y-10550000D02*
G75*
G02*
X13220000Y-10550000I20000J0D01*
G01*
X13220000Y-10700000D02*
G75*
G02*
X13180000Y-10700000I-20000J0D01*
G01*
X13180000Y-10700000D02*
G75*
G02*
X13220000Y-10700000I20000J0D01*
G01*
X13220000Y-10850000D02*
G75*
G02*
X13180000Y-10850000I-20000J0D01*
G01*
X13180000Y-10850000D02*
G75*
G02*
X13220000Y-10850000I20000J0D01*
G01*
X13220000Y-11040000D02*
G75*
G02*
X13180000Y-11040000I-20000J0D01*
G01*
X13180000Y-11040000D02*
G75*
G02*
X13220000Y-11040000I20000J0D01*
G01*
X13357500Y-10702500D02*
G75*
G02*
X13317500Y-10702500I-20000J0D01*
G01*
X13317500Y-10702500D02*
G75*
G02*
X13357500Y-10702500I20000J0D01*
G01*
X13370000Y-10850000D02*
G75*
G02*
X13330000Y-10850000I-20000J0D01*
G01*
X13330000Y-10850000D02*
G75*
G02*
X13370000Y-10850000I20000J0D01*
G01*
X13370000Y-11040000D02*
G75*
G02*
X13330000Y-11040000I-20000J0D01*
G01*
X13330000Y-11040000D02*
G75*
G02*
X13370000Y-11040000I20000J0D01*
G01*
X13490000Y-10700000D02*
G75*
G02*
X13450000Y-10700000I-20000J0D01*
G01*
X13450000Y-10700000D02*
G75*
G02*
X13490000Y-10700000I20000J0D01*
G01*
X13520000Y-10850000D02*
G75*
G02*
X13480000Y-10850000I-20000J0D01*
G01*
X13480000Y-10850000D02*
G75*
G02*
X13520000Y-10850000I20000J0D01*
G01*
X13520000Y-11040000D02*
G75*
G02*
X13480000Y-11040000I-20000J0D01*
G01*
X13480000Y-11040000D02*
G75*
G02*
X13520000Y-11040000I20000J0D01*
G01*
X13570000Y-10600000D02*
G75*
G02*
X13530000Y-10600000I-20000J0D01*
G01*
X13530000Y-10600000D02*
G75*
G02*
X13570000Y-10600000I20000J0D01*
G01*
X13667802Y-11034008D02*
G75*
G02*
X13627802Y-11034008I-20000J0D01*
G01*
X13627802Y-11034008D02*
G75*
G02*
X13667802Y-11034008I20000J0D01*
G01*
X13670000Y-10750000D02*
G75*
G02*
X13630000Y-10750000I-20000J0D01*
G01*
X13630000Y-10750000D02*
G75*
G02*
X13670000Y-10750000I20000J0D01*
G01*
X13670000Y-10900000D02*
G75*
G02*
X13630000Y-10900000I-20000J0D01*
G01*
X13630000Y-10900000D02*
G75*
G02*
X13670000Y-10900000I20000J0D01*
G01*
X14220000Y-9750000D02*
G75*
G02*
X14180000Y-9750000I-20000J0D01*
G01*
X14180000Y-9750000D02*
G75*
G02*
X14220000Y-9750000I20000J0D01*
G01*
X14220000Y-9900000D02*
G75*
G02*
X14180000Y-9900000I-20000J0D01*
G01*
X14180000Y-9900000D02*
G75*
G02*
X14220000Y-9900000I20000J0D01*
G01*
X14370000Y-9750000D02*
G75*
G02*
X14330000Y-9750000I-20000J0D01*
G01*
X14330000Y-9750000D02*
G75*
G02*
X14370000Y-9750000I20000J0D01*
G01*
X14520000Y-9750000D02*
G75*
G02*
X14480000Y-9750000I-20000J0D01*
G01*
X14480000Y-9750000D02*
G75*
G02*
X14520000Y-9750000I20000J0D01*
G01*
X14570000Y-10900000D02*
G75*
G02*
X14530000Y-10900000I-20000J0D01*
G01*
X14530000Y-10900000D02*
G75*
G02*
X14570000Y-10900000I20000J0D01*
G01*
X14570000Y-11040000D02*
G75*
G02*
X14530000Y-11040000I-20000J0D01*
G01*
X14530000Y-11040000D02*
G75*
G02*
X14570000Y-11040000I20000J0D01*
G01*
X14720000Y-10900000D02*
G75*
G02*
X14680000Y-10900000I-20000J0D01*
G01*
X14680000Y-10900000D02*
G75*
G02*
X14720000Y-10900000I20000J0D01*
G01*
X14720000Y-11040000D02*
G75*
G02*
X14680000Y-11040000I-20000J0D01*
G01*
X14680000Y-11040000D02*
G75*
G02*
X14720000Y-11040000I20000J0D01*
G01*
X14870000Y-10900000D02*
G75*
G02*
X14830000Y-10900000I-20000J0D01*
G01*
X14830000Y-10900000D02*
G75*
G02*
X14870000Y-10900000I20000J0D01*
G01*
X14870000Y-11040000D02*
G75*
G02*
X14830000Y-11040000I-20000J0D01*
G01*
X14830000Y-11040000D02*
G75*
G02*
X14870000Y-11040000I20000J0D01*
G01*
X15020000Y-10350000D02*
G75*
G02*
X14980000Y-10350000I-20000J0D01*
G01*
X14980000Y-10350000D02*
G75*
G02*
X15020000Y-10350000I20000J0D01*
G01*
X15020000Y-10900000D02*
G75*
G02*
X14980000Y-10900000I-20000J0D01*
G01*
X14980000Y-10900000D02*
G75*
G02*
X15020000Y-10900000I20000J0D01*
G01*
X15020000Y-11040000D02*
G75*
G02*
X14980000Y-11040000I-20000J0D01*
G01*
X14980000Y-11040000D02*
G75*
G02*
X15020000Y-11040000I20000J0D01*
G01*
X15070000Y-9750000D02*
G75*
G02*
X15030000Y-9750000I-20000J0D01*
G01*
X15030000Y-9750000D02*
G75*
G02*
X15070000Y-9750000I20000J0D01*
G01*
X15070000Y-9900000D02*
G75*
G02*
X15030000Y-9900000I-20000J0D01*
G01*
X15030000Y-9900000D02*
G75*
G02*
X15070000Y-9900000I20000J0D01*
G01*
X15154171Y-10346282D02*
G75*
G02*
X15114171Y-10346282I-20000J0D01*
G01*
X15114171Y-10346282D02*
G75*
G02*
X15154171Y-10346282I20000J0D01*
G01*
X15170000Y-10900000D02*
G75*
G02*
X15130000Y-10900000I-20000J0D01*
G01*
X15130000Y-10900000D02*
G75*
G02*
X15170000Y-10900000I20000J0D01*
G01*
X15170000Y-11040000D02*
G75*
G02*
X15130000Y-11040000I-20000J0D01*
G01*
X15130000Y-11040000D02*
G75*
G02*
X15170000Y-11040000I20000J0D01*
G01*
X15220000Y-9750000D02*
G75*
G02*
X15180000Y-9750000I-20000J0D01*
G01*
X15180000Y-9750000D02*
G75*
G02*
X15220000Y-9750000I20000J0D01*
G01*
X15220000Y-9900000D02*
G75*
G02*
X15180000Y-9900000I-20000J0D01*
G01*
X15180000Y-9900000D02*
G75*
G02*
X15220000Y-9900000I20000J0D01*
G01*
X15320000Y-10250000D02*
G75*
G02*
X15280000Y-10250000I-20000J0D01*
G01*
X15280000Y-10250000D02*
G75*
G02*
X15320000Y-10250000I20000J0D01*
G01*
X15370000Y-9750000D02*
G75*
G02*
X15330000Y-9750000I-20000J0D01*
G01*
X15330000Y-9750000D02*
G75*
G02*
X15370000Y-9750000I20000J0D01*
G01*
X15370000Y-9900000D02*
G75*
G02*
X15330000Y-9900000I-20000J0D01*
G01*
X15330000Y-9900000D02*
G75*
G02*
X15370000Y-9900000I20000J0D01*
G01*
X15784673Y-9970825D02*
G75*
G02*
X15744673Y-9970825I-20000J0D01*
G01*
X15744673Y-9970825D02*
G75*
G02*
X15784673Y-9970825I20000J0D01*
G01*
X16070000Y-10300000D02*
G75*
G02*
X16030000Y-10300000I-20000J0D01*
G01*
X16030000Y-10300000D02*
G75*
G02*
X16070000Y-10300000I20000J0D01*
G01*
X16070000Y-10400000D02*
G75*
G02*
X16030000Y-10400000I-20000J0D01*
G01*
X16030000Y-10400000D02*
G75*
G02*
X16070000Y-10400000I20000J0D01*
G01*
X16220000Y-10300000D02*
G75*
G02*
X16180000Y-10300000I-20000J0D01*
G01*
X16180000Y-10300000D02*
G75*
G02*
X16220000Y-10300000I20000J0D01*
G01*
X16220000Y-10400000D02*
G75*
G02*
X16180000Y-10400000I-20000J0D01*
G01*
X16180000Y-10400000D02*
G75*
G02*
X16220000Y-10400000I20000J0D01*
G01*
X13391478Y-10314533D02*
X13391478Y-10389533D01*
X13353978Y-10352033D02*
X13428978Y-10352033D01*
X13391478Y-10514533D02*
X13391478Y-10589533D01*
X13353978Y-10552033D02*
X13428978Y-10552033D01*
X15917067Y-10392433D02*
X15917067Y-10321722D01*
X15846355Y-10321722D01*
X15846355Y-10392433D01*
X15917067Y-10392433D01*
X15917067Y-10646433D02*
X15917067Y-10575722D01*
X15846355Y-10575722D01*
X15846355Y-10646433D01*
X15917067Y-10646433D01*
D11*
X13004755Y-11421484D02*
X13004755Y-11221484D01*
X13004755Y-11221484D02*
X13052374Y-11221484D01*
X13052374Y-11221484D02*
X13080946Y-11231008D01*
X13080946Y-11231008D02*
X13099993Y-11250055D01*
X13099993Y-11250055D02*
X13109517Y-11269103D01*
X13109517Y-11269103D02*
X13119041Y-11307198D01*
X13119041Y-11307198D02*
X13119041Y-11335769D01*
X13119041Y-11335769D02*
X13109517Y-11373865D01*
X13109517Y-11373865D02*
X13099993Y-11392912D01*
X13099993Y-11392912D02*
X13080946Y-11411960D01*
X13080946Y-11411960D02*
X13052374Y-11421484D01*
X13052374Y-11421484D02*
X13004755Y-11421484D01*
X13204755Y-11421484D02*
X13204755Y-11288150D01*
X13204755Y-11326246D02*
X13214279Y-11307198D01*
X13214279Y-11307198D02*
X13223803Y-11297674D01*
X13223803Y-11297674D02*
X13242850Y-11288150D01*
X13242850Y-11288150D02*
X13261898Y-11288150D01*
X13328565Y-11421484D02*
X13328565Y-11288150D01*
X13328565Y-11221484D02*
X13319041Y-11231008D01*
X13319041Y-11231008D02*
X13328565Y-11240531D01*
X13328565Y-11240531D02*
X13338088Y-11231008D01*
X13338088Y-11231008D02*
X13328565Y-11221484D01*
X13328565Y-11221484D02*
X13328565Y-11240531D01*
X13452374Y-11421484D02*
X13433326Y-11411960D01*
X13433326Y-11411960D02*
X13423803Y-11392912D01*
X13423803Y-11392912D02*
X13423803Y-11221484D01*
X13557136Y-11421484D02*
X13538088Y-11411960D01*
X13538088Y-11411960D02*
X13528565Y-11392912D01*
X13528565Y-11392912D02*
X13528565Y-11221484D01*
X13785707Y-11421484D02*
X13785707Y-11221484D01*
X13785707Y-11221484D02*
X13852374Y-11364341D01*
X13852374Y-11364341D02*
X13919041Y-11221484D01*
X13919041Y-11221484D02*
X13919041Y-11421484D01*
X14099993Y-11421484D02*
X14099993Y-11316722D01*
X14099993Y-11316722D02*
X14090469Y-11297674D01*
X14090469Y-11297674D02*
X14071422Y-11288150D01*
X14071422Y-11288150D02*
X14033326Y-11288150D01*
X14033326Y-11288150D02*
X14014279Y-11297674D01*
X14099993Y-11411960D02*
X14080946Y-11421484D01*
X14080946Y-11421484D02*
X14033326Y-11421484D01*
X14033326Y-11421484D02*
X14014279Y-11411960D01*
X14014279Y-11411960D02*
X14004755Y-11392912D01*
X14004755Y-11392912D02*
X14004755Y-11373865D01*
X14004755Y-11373865D02*
X14014279Y-11354817D01*
X14014279Y-11354817D02*
X14033326Y-11345293D01*
X14033326Y-11345293D02*
X14080946Y-11345293D01*
X14080946Y-11345293D02*
X14099993Y-11335769D01*
X14195231Y-11288150D02*
X14195231Y-11488150D01*
X14195231Y-11297674D02*
X14214279Y-11288150D01*
X14214279Y-11288150D02*
X14252374Y-11288150D01*
X14252374Y-11288150D02*
X14271422Y-11297674D01*
X14271422Y-11297674D02*
X14280946Y-11307198D01*
X14280946Y-11307198D02*
X14290469Y-11326246D01*
X14290469Y-11326246D02*
X14290469Y-11383388D01*
X14290469Y-11383388D02*
X14280946Y-11402436D01*
X14280946Y-11402436D02*
X14271422Y-11411960D01*
X14271422Y-11411960D02*
X14252374Y-11421484D01*
X14252374Y-11421484D02*
X14214279Y-11421484D01*
X14214279Y-11421484D02*
X14195231Y-11411960D01*
X14376184Y-11402436D02*
X14385707Y-11411960D01*
X14385707Y-11411960D02*
X14376184Y-11421484D01*
X14376184Y-11421484D02*
X14366660Y-11411960D01*
X14366660Y-11411960D02*
X14376184Y-11402436D01*
X14376184Y-11402436D02*
X14376184Y-11421484D01*
X14376184Y-11297674D02*
X14385707Y-11307198D01*
X14385707Y-11307198D02*
X14376184Y-11316722D01*
X14376184Y-11316722D02*
X14366660Y-11307198D01*
X14366660Y-11307198D02*
X14376184Y-11297674D01*
X14376184Y-11297674D02*
X14376184Y-11316722D01*
D12*
X12723978Y-11740000D02*
X12743978Y-11760000D01*
X12743978Y-11740000D02*
X12723978Y-11760000D01*
D11*
X13042850Y-11641484D02*
X13061898Y-11641484D01*
X13061898Y-11641484D02*
X13080946Y-11651008D01*
X13080946Y-11651008D02*
X13090469Y-11660531D01*
X13090469Y-11660531D02*
X13099993Y-11679579D01*
X13099993Y-11679579D02*
X13109517Y-11717674D01*
X13109517Y-11717674D02*
X13109517Y-11765293D01*
X13109517Y-11765293D02*
X13099993Y-11803388D01*
X13099993Y-11803388D02*
X13090469Y-11822436D01*
X13090469Y-11822436D02*
X13080946Y-11831960D01*
X13080946Y-11831960D02*
X13061898Y-11841484D01*
X13061898Y-11841484D02*
X13042850Y-11841484D01*
X13042850Y-11841484D02*
X13023803Y-11831960D01*
X13023803Y-11831960D02*
X13014279Y-11822436D01*
X13014279Y-11822436D02*
X13004755Y-11803388D01*
X13004755Y-11803388D02*
X12995231Y-11765293D01*
X12995231Y-11765293D02*
X12995231Y-11717674D01*
X12995231Y-11717674D02*
X13004755Y-11679579D01*
X13004755Y-11679579D02*
X13014279Y-11660531D01*
X13014279Y-11660531D02*
X13023803Y-11651008D01*
X13023803Y-11651008D02*
X13042850Y-11641484D01*
X13195231Y-11822436D02*
X13204755Y-11831960D01*
X13204755Y-11831960D02*
X13195231Y-11841484D01*
X13195231Y-11841484D02*
X13185707Y-11831960D01*
X13185707Y-11831960D02*
X13195231Y-11822436D01*
X13195231Y-11822436D02*
X13195231Y-11841484D01*
X13280946Y-11660531D02*
X13290469Y-11651008D01*
X13290469Y-11651008D02*
X13309517Y-11641484D01*
X13309517Y-11641484D02*
X13357136Y-11641484D01*
X13357136Y-11641484D02*
X13376184Y-11651008D01*
X13376184Y-11651008D02*
X13385707Y-11660531D01*
X13385707Y-11660531D02*
X13395231Y-11679579D01*
X13395231Y-11679579D02*
X13395231Y-11698627D01*
X13395231Y-11698627D02*
X13385707Y-11727198D01*
X13385707Y-11727198D02*
X13271422Y-11841484D01*
X13271422Y-11841484D02*
X13395231Y-11841484D01*
X13519041Y-11641484D02*
X13538088Y-11641484D01*
X13538088Y-11641484D02*
X13557136Y-11651008D01*
X13557136Y-11651008D02*
X13566660Y-11660531D01*
X13566660Y-11660531D02*
X13576184Y-11679579D01*
X13576184Y-11679579D02*
X13585707Y-11717674D01*
X13585707Y-11717674D02*
X13585707Y-11765293D01*
X13585707Y-11765293D02*
X13576184Y-11803388D01*
X13576184Y-11803388D02*
X13566660Y-11822436D01*
X13566660Y-11822436D02*
X13557136Y-11831960D01*
X13557136Y-11831960D02*
X13538088Y-11841484D01*
X13538088Y-11841484D02*
X13519041Y-11841484D01*
X13519041Y-11841484D02*
X13499993Y-11831960D01*
X13499993Y-11831960D02*
X13490469Y-11822436D01*
X13490469Y-11822436D02*
X13480946Y-11803388D01*
X13480946Y-11803388D02*
X13471422Y-11765293D01*
X13471422Y-11765293D02*
X13471422Y-11717674D01*
X13471422Y-11717674D02*
X13480946Y-11679579D01*
X13480946Y-11679579D02*
X13490469Y-11660531D01*
X13490469Y-11660531D02*
X13499993Y-11651008D01*
X13499993Y-11651008D02*
X13519041Y-11641484D01*
X13709517Y-11641484D02*
X13728565Y-11641484D01*
X13728565Y-11641484D02*
X13747612Y-11651008D01*
X13747612Y-11651008D02*
X13757136Y-11660531D01*
X13757136Y-11660531D02*
X13766660Y-11679579D01*
X13766660Y-11679579D02*
X13776184Y-11717674D01*
X13776184Y-11717674D02*
X13776184Y-11765293D01*
X13776184Y-11765293D02*
X13766660Y-11803388D01*
X13766660Y-11803388D02*
X13757136Y-11822436D01*
X13757136Y-11822436D02*
X13747612Y-11831960D01*
X13747612Y-11831960D02*
X13728565Y-11841484D01*
X13728565Y-11841484D02*
X13709517Y-11841484D01*
X13709517Y-11841484D02*
X13690469Y-11831960D01*
X13690469Y-11831960D02*
X13680946Y-11822436D01*
X13680946Y-11822436D02*
X13671422Y-11803388D01*
X13671422Y-11803388D02*
X13661898Y-11765293D01*
X13661898Y-11765293D02*
X13661898Y-11717674D01*
X13661898Y-11717674D02*
X13671422Y-11679579D01*
X13671422Y-11679579D02*
X13680946Y-11660531D01*
X13680946Y-11660531D02*
X13690469Y-11651008D01*
X13690469Y-11651008D02*
X13709517Y-11641484D01*
X13861898Y-11841484D02*
X13861898Y-11708150D01*
X13861898Y-11727198D02*
X13871422Y-11717674D01*
X13871422Y-11717674D02*
X13890469Y-11708150D01*
X13890469Y-11708150D02*
X13919041Y-11708150D01*
X13919041Y-11708150D02*
X13938088Y-11717674D01*
X13938088Y-11717674D02*
X13947612Y-11736722D01*
X13947612Y-11736722D02*
X13947612Y-11841484D01*
X13947612Y-11736722D02*
X13957136Y-11717674D01*
X13957136Y-11717674D02*
X13976184Y-11708150D01*
X13976184Y-11708150D02*
X14004755Y-11708150D01*
X14004755Y-11708150D02*
X14023803Y-11717674D01*
X14023803Y-11717674D02*
X14033327Y-11736722D01*
X14033327Y-11736722D02*
X14033327Y-11841484D01*
X14128565Y-11841484D02*
X14128565Y-11708150D01*
X14128565Y-11727198D02*
X14138088Y-11717674D01*
X14138088Y-11717674D02*
X14157136Y-11708150D01*
X14157136Y-11708150D02*
X14185708Y-11708150D01*
X14185708Y-11708150D02*
X14204755Y-11717674D01*
X14204755Y-11717674D02*
X14214279Y-11736722D01*
X14214279Y-11736722D02*
X14214279Y-11841484D01*
X14214279Y-11736722D02*
X14223803Y-11717674D01*
X14223803Y-11717674D02*
X14242850Y-11708150D01*
X14242850Y-11708150D02*
X14271422Y-11708150D01*
X14271422Y-11708150D02*
X14290469Y-11717674D01*
X14290469Y-11717674D02*
X14299993Y-11736722D01*
X14299993Y-11736722D02*
X14299993Y-11841484D01*
X14690469Y-11631960D02*
X14519041Y-11889103D01*
X14947612Y-11641484D02*
X14966660Y-11641484D01*
X14966660Y-11641484D02*
X14985708Y-11651008D01*
X14985708Y-11651008D02*
X14995231Y-11660531D01*
X14995231Y-11660531D02*
X15004755Y-11679579D01*
X15004755Y-11679579D02*
X15014279Y-11717674D01*
X15014279Y-11717674D02*
X15014279Y-11765293D01*
X15014279Y-11765293D02*
X15004755Y-11803388D01*
X15004755Y-11803388D02*
X14995231Y-11822436D01*
X14995231Y-11822436D02*
X14985708Y-11831960D01*
X14985708Y-11831960D02*
X14966660Y-11841484D01*
X14966660Y-11841484D02*
X14947612Y-11841484D01*
X14947612Y-11841484D02*
X14928565Y-11831960D01*
X14928565Y-11831960D02*
X14919041Y-11822436D01*
X14919041Y-11822436D02*
X14909517Y-11803388D01*
X14909517Y-11803388D02*
X14899993Y-11765293D01*
X14899993Y-11765293D02*
X14899993Y-11717674D01*
X14899993Y-11717674D02*
X14909517Y-11679579D01*
X14909517Y-11679579D02*
X14919041Y-11660531D01*
X14919041Y-11660531D02*
X14928565Y-11651008D01*
X14928565Y-11651008D02*
X14947612Y-11641484D01*
X15099993Y-11822436D02*
X15109517Y-11831960D01*
X15109517Y-11831960D02*
X15099993Y-11841484D01*
X15099993Y-11841484D02*
X15090470Y-11831960D01*
X15090470Y-11831960D02*
X15099993Y-11822436D01*
X15099993Y-11822436D02*
X15099993Y-11841484D01*
X15233327Y-11641484D02*
X15252374Y-11641484D01*
X15252374Y-11641484D02*
X15271422Y-11651008D01*
X15271422Y-11651008D02*
X15280946Y-11660531D01*
X15280946Y-11660531D02*
X15290470Y-11679579D01*
X15290470Y-11679579D02*
X15299993Y-11717674D01*
X15299993Y-11717674D02*
X15299993Y-11765293D01*
X15299993Y-11765293D02*
X15290470Y-11803388D01*
X15290470Y-11803388D02*
X15280946Y-11822436D01*
X15280946Y-11822436D02*
X15271422Y-11831960D01*
X15271422Y-11831960D02*
X15252374Y-11841484D01*
X15252374Y-11841484D02*
X15233327Y-11841484D01*
X15233327Y-11841484D02*
X15214279Y-11831960D01*
X15214279Y-11831960D02*
X15204755Y-11822436D01*
X15204755Y-11822436D02*
X15195231Y-11803388D01*
X15195231Y-11803388D02*
X15185708Y-11765293D01*
X15185708Y-11765293D02*
X15185708Y-11717674D01*
X15185708Y-11717674D02*
X15195231Y-11679579D01*
X15195231Y-11679579D02*
X15204755Y-11660531D01*
X15204755Y-11660531D02*
X15214279Y-11651008D01*
X15214279Y-11651008D02*
X15233327Y-11641484D01*
X15423803Y-11641484D02*
X15442851Y-11641484D01*
X15442851Y-11641484D02*
X15461898Y-11651008D01*
X15461898Y-11651008D02*
X15471422Y-11660531D01*
X15471422Y-11660531D02*
X15480946Y-11679579D01*
X15480946Y-11679579D02*
X15490470Y-11717674D01*
X15490470Y-11717674D02*
X15490470Y-11765293D01*
X15490470Y-11765293D02*
X15480946Y-11803388D01*
X15480946Y-11803388D02*
X15471422Y-11822436D01*
X15471422Y-11822436D02*
X15461898Y-11831960D01*
X15461898Y-11831960D02*
X15442851Y-11841484D01*
X15442851Y-11841484D02*
X15423803Y-11841484D01*
X15423803Y-11841484D02*
X15404755Y-11831960D01*
X15404755Y-11831960D02*
X15395231Y-11822436D01*
X15395231Y-11822436D02*
X15385708Y-11803388D01*
X15385708Y-11803388D02*
X15376184Y-11765293D01*
X15376184Y-11765293D02*
X15376184Y-11717674D01*
X15376184Y-11717674D02*
X15385708Y-11679579D01*
X15385708Y-11679579D02*
X15395231Y-11660531D01*
X15395231Y-11660531D02*
X15404755Y-11651008D01*
X15404755Y-11651008D02*
X15423803Y-11641484D01*
X15557136Y-11641484D02*
X15690470Y-11641484D01*
X15690470Y-11641484D02*
X15604755Y-11841484D01*
X15776184Y-11841484D02*
X15814279Y-11841484D01*
X15814279Y-11841484D02*
X15833327Y-11831960D01*
X15833327Y-11831960D02*
X15842851Y-11822436D01*
X15842851Y-11822436D02*
X15861898Y-11793865D01*
X15861898Y-11793865D02*
X15871422Y-11755769D01*
X15871422Y-11755769D02*
X15871422Y-11679579D01*
X15871422Y-11679579D02*
X15861898Y-11660531D01*
X15861898Y-11660531D02*
X15852374Y-11651008D01*
X15852374Y-11651008D02*
X15833327Y-11641484D01*
X15833327Y-11641484D02*
X15795231Y-11641484D01*
X15795231Y-11641484D02*
X15776184Y-11651008D01*
X15776184Y-11651008D02*
X15766660Y-11660531D01*
X15766660Y-11660531D02*
X15757136Y-11679579D01*
X15757136Y-11679579D02*
X15757136Y-11727198D01*
X15757136Y-11727198D02*
X15766660Y-11746246D01*
X15766660Y-11746246D02*
X15776184Y-11755769D01*
X15776184Y-11755769D02*
X15795231Y-11765293D01*
X15795231Y-11765293D02*
X15833327Y-11765293D01*
X15833327Y-11765293D02*
X15852374Y-11755769D01*
X15852374Y-11755769D02*
X15861898Y-11746246D01*
X15861898Y-11746246D02*
X15871422Y-11727198D01*
X15947612Y-11641484D02*
X15947612Y-11679579D01*
X16023803Y-11641484D02*
X16023803Y-11679579D01*
X16319041Y-11917674D02*
X16309517Y-11908150D01*
X16309517Y-11908150D02*
X16290470Y-11879579D01*
X16290470Y-11879579D02*
X16280946Y-11860531D01*
X16280946Y-11860531D02*
X16271422Y-11831960D01*
X16271422Y-11831960D02*
X16261898Y-11784341D01*
X16261898Y-11784341D02*
X16261898Y-11746246D01*
X16261898Y-11746246D02*
X16271422Y-11698627D01*
X16271422Y-11698627D02*
X16280946Y-11670055D01*
X16280946Y-11670055D02*
X16290470Y-11651008D01*
X16290470Y-11651008D02*
X16309517Y-11622436D01*
X16309517Y-11622436D02*
X16319041Y-11612912D01*
X16499993Y-11841484D02*
X16385708Y-11841484D01*
X16442851Y-11841484D02*
X16442851Y-11641484D01*
X16442851Y-11641484D02*
X16423803Y-11670055D01*
X16423803Y-11670055D02*
X16404755Y-11689103D01*
X16404755Y-11689103D02*
X16385708Y-11698627D01*
X16566660Y-11641484D02*
X16690470Y-11641484D01*
X16690470Y-11641484D02*
X16623803Y-11717674D01*
X16623803Y-11717674D02*
X16652374Y-11717674D01*
X16652374Y-11717674D02*
X16671422Y-11727198D01*
X16671422Y-11727198D02*
X16680946Y-11736722D01*
X16680946Y-11736722D02*
X16690470Y-11755769D01*
X16690470Y-11755769D02*
X16690470Y-11803388D01*
X16690470Y-11803388D02*
X16680946Y-11822436D01*
X16680946Y-11822436D02*
X16671422Y-11831960D01*
X16671422Y-11831960D02*
X16652374Y-11841484D01*
X16652374Y-11841484D02*
X16595232Y-11841484D01*
X16595232Y-11841484D02*
X16576184Y-11831960D01*
X16576184Y-11831960D02*
X16566660Y-11822436D01*
X16928565Y-11841484D02*
X16928565Y-11641484D01*
X17014279Y-11841484D02*
X17014279Y-11736722D01*
X17014279Y-11736722D02*
X17004756Y-11717674D01*
X17004756Y-11717674D02*
X16985708Y-11708150D01*
X16985708Y-11708150D02*
X16957136Y-11708150D01*
X16957136Y-11708150D02*
X16938089Y-11717674D01*
X16938089Y-11717674D02*
X16928565Y-11727198D01*
X17138089Y-11841484D02*
X17119041Y-11831960D01*
X17119041Y-11831960D02*
X17109517Y-11822436D01*
X17109517Y-11822436D02*
X17099994Y-11803388D01*
X17099994Y-11803388D02*
X17099994Y-11746246D01*
X17099994Y-11746246D02*
X17109517Y-11727198D01*
X17109517Y-11727198D02*
X17119041Y-11717674D01*
X17119041Y-11717674D02*
X17138089Y-11708150D01*
X17138089Y-11708150D02*
X17166660Y-11708150D01*
X17166660Y-11708150D02*
X17185708Y-11717674D01*
X17185708Y-11717674D02*
X17195232Y-11727198D01*
X17195232Y-11727198D02*
X17204756Y-11746246D01*
X17204756Y-11746246D02*
X17204756Y-11803388D01*
X17204756Y-11803388D02*
X17195232Y-11822436D01*
X17195232Y-11822436D02*
X17185708Y-11831960D01*
X17185708Y-11831960D02*
X17166660Y-11841484D01*
X17166660Y-11841484D02*
X17138089Y-11841484D01*
X17319041Y-11841484D02*
X17299994Y-11831960D01*
X17299994Y-11831960D02*
X17290470Y-11812912D01*
X17290470Y-11812912D02*
X17290470Y-11641484D01*
X17471422Y-11831960D02*
X17452375Y-11841484D01*
X17452375Y-11841484D02*
X17414279Y-11841484D01*
X17414279Y-11841484D02*
X17395232Y-11831960D01*
X17395232Y-11831960D02*
X17385708Y-11812912D01*
X17385708Y-11812912D02*
X17385708Y-11736722D01*
X17385708Y-11736722D02*
X17395232Y-11717674D01*
X17395232Y-11717674D02*
X17414279Y-11708150D01*
X17414279Y-11708150D02*
X17452375Y-11708150D01*
X17452375Y-11708150D02*
X17471422Y-11717674D01*
X17471422Y-11717674D02*
X17480946Y-11736722D01*
X17480946Y-11736722D02*
X17480946Y-11755769D01*
X17480946Y-11755769D02*
X17385708Y-11774817D01*
X17557137Y-11831960D02*
X17576184Y-11841484D01*
X17576184Y-11841484D02*
X17614279Y-11841484D01*
X17614279Y-11841484D02*
X17633327Y-11831960D01*
X17633327Y-11831960D02*
X17642851Y-11812912D01*
X17642851Y-11812912D02*
X17642851Y-11803388D01*
X17642851Y-11803388D02*
X17633327Y-11784341D01*
X17633327Y-11784341D02*
X17614279Y-11774817D01*
X17614279Y-11774817D02*
X17585708Y-11774817D01*
X17585708Y-11774817D02*
X17566660Y-11765293D01*
X17566660Y-11765293D02*
X17557137Y-11746246D01*
X17557137Y-11746246D02*
X17557137Y-11736722D01*
X17557137Y-11736722D02*
X17566660Y-11717674D01*
X17566660Y-11717674D02*
X17585708Y-11708150D01*
X17585708Y-11708150D02*
X17614279Y-11708150D01*
X17614279Y-11708150D02*
X17633327Y-11717674D01*
X17709518Y-11917674D02*
X17719041Y-11908150D01*
X17719041Y-11908150D02*
X17738089Y-11879579D01*
X17738089Y-11879579D02*
X17747613Y-11860531D01*
X17747613Y-11860531D02*
X17757137Y-11831960D01*
X17757137Y-11831960D02*
X17766660Y-11784341D01*
X17766660Y-11784341D02*
X17766660Y-11746246D01*
X17766660Y-11746246D02*
X17757137Y-11698627D01*
X17757137Y-11698627D02*
X17747613Y-11670055D01*
X17747613Y-11670055D02*
X17738089Y-11651008D01*
X17738089Y-11651008D02*
X17719041Y-11622436D01*
X17719041Y-11622436D02*
X17709518Y-11612912D01*
D12*
X12743978Y-12014000D02*
G75*
G02*
X12703978Y-12014000I-20000J0D01*
G01*
X12703978Y-12014000D02*
G75*
G02*
X12743978Y-12014000I20000J0D01*
G01*
D11*
X13042850Y-11905484D02*
X13061898Y-11905484D01*
X13061898Y-11905484D02*
X13080946Y-11915008D01*
X13080946Y-11915008D02*
X13090469Y-11924531D01*
X13090469Y-11924531D02*
X13099993Y-11943579D01*
X13099993Y-11943579D02*
X13109517Y-11981674D01*
X13109517Y-11981674D02*
X13109517Y-12029293D01*
X13109517Y-12029293D02*
X13099993Y-12067388D01*
X13099993Y-12067388D02*
X13090469Y-12086436D01*
X13090469Y-12086436D02*
X13080946Y-12095960D01*
X13080946Y-12095960D02*
X13061898Y-12105484D01*
X13061898Y-12105484D02*
X13042850Y-12105484D01*
X13042850Y-12105484D02*
X13023803Y-12095960D01*
X13023803Y-12095960D02*
X13014279Y-12086436D01*
X13014279Y-12086436D02*
X13004755Y-12067388D01*
X13004755Y-12067388D02*
X12995231Y-12029293D01*
X12995231Y-12029293D02*
X12995231Y-11981674D01*
X12995231Y-11981674D02*
X13004755Y-11943579D01*
X13004755Y-11943579D02*
X13014279Y-11924531D01*
X13014279Y-11924531D02*
X13023803Y-11915008D01*
X13023803Y-11915008D02*
X13042850Y-11905484D01*
X13195231Y-12086436D02*
X13204755Y-12095960D01*
X13204755Y-12095960D02*
X13195231Y-12105484D01*
X13195231Y-12105484D02*
X13185707Y-12095960D01*
X13185707Y-12095960D02*
X13195231Y-12086436D01*
X13195231Y-12086436D02*
X13195231Y-12105484D01*
X13376184Y-11972150D02*
X13376184Y-12105484D01*
X13328565Y-11895960D02*
X13280946Y-12038817D01*
X13280946Y-12038817D02*
X13404755Y-12038817D01*
X13519041Y-11905484D02*
X13538088Y-11905484D01*
X13538088Y-11905484D02*
X13557136Y-11915008D01*
X13557136Y-11915008D02*
X13566660Y-11924531D01*
X13566660Y-11924531D02*
X13576184Y-11943579D01*
X13576184Y-11943579D02*
X13585707Y-11981674D01*
X13585707Y-11981674D02*
X13585707Y-12029293D01*
X13585707Y-12029293D02*
X13576184Y-12067388D01*
X13576184Y-12067388D02*
X13566660Y-12086436D01*
X13566660Y-12086436D02*
X13557136Y-12095960D01*
X13557136Y-12095960D02*
X13538088Y-12105484D01*
X13538088Y-12105484D02*
X13519041Y-12105484D01*
X13519041Y-12105484D02*
X13499993Y-12095960D01*
X13499993Y-12095960D02*
X13490469Y-12086436D01*
X13490469Y-12086436D02*
X13480946Y-12067388D01*
X13480946Y-12067388D02*
X13471422Y-12029293D01*
X13471422Y-12029293D02*
X13471422Y-11981674D01*
X13471422Y-11981674D02*
X13480946Y-11943579D01*
X13480946Y-11943579D02*
X13490469Y-11924531D01*
X13490469Y-11924531D02*
X13499993Y-11915008D01*
X13499993Y-11915008D02*
X13519041Y-11905484D01*
X13709517Y-11905484D02*
X13728565Y-11905484D01*
X13728565Y-11905484D02*
X13747612Y-11915008D01*
X13747612Y-11915008D02*
X13757136Y-11924531D01*
X13757136Y-11924531D02*
X13766660Y-11943579D01*
X13766660Y-11943579D02*
X13776184Y-11981674D01*
X13776184Y-11981674D02*
X13776184Y-12029293D01*
X13776184Y-12029293D02*
X13766660Y-12067388D01*
X13766660Y-12067388D02*
X13757136Y-12086436D01*
X13757136Y-12086436D02*
X13747612Y-12095960D01*
X13747612Y-12095960D02*
X13728565Y-12105484D01*
X13728565Y-12105484D02*
X13709517Y-12105484D01*
X13709517Y-12105484D02*
X13690469Y-12095960D01*
X13690469Y-12095960D02*
X13680946Y-12086436D01*
X13680946Y-12086436D02*
X13671422Y-12067388D01*
X13671422Y-12067388D02*
X13661898Y-12029293D01*
X13661898Y-12029293D02*
X13661898Y-11981674D01*
X13661898Y-11981674D02*
X13671422Y-11943579D01*
X13671422Y-11943579D02*
X13680946Y-11924531D01*
X13680946Y-11924531D02*
X13690469Y-11915008D01*
X13690469Y-11915008D02*
X13709517Y-11905484D01*
X13861898Y-12105484D02*
X13861898Y-11972150D01*
X13861898Y-11991198D02*
X13871422Y-11981674D01*
X13871422Y-11981674D02*
X13890469Y-11972150D01*
X13890469Y-11972150D02*
X13919041Y-11972150D01*
X13919041Y-11972150D02*
X13938088Y-11981674D01*
X13938088Y-11981674D02*
X13947612Y-12000722D01*
X13947612Y-12000722D02*
X13947612Y-12105484D01*
X13947612Y-12000722D02*
X13957136Y-11981674D01*
X13957136Y-11981674D02*
X13976184Y-11972150D01*
X13976184Y-11972150D02*
X14004755Y-11972150D01*
X14004755Y-11972150D02*
X14023803Y-11981674D01*
X14023803Y-11981674D02*
X14033327Y-12000722D01*
X14033327Y-12000722D02*
X14033327Y-12105484D01*
X14128565Y-12105484D02*
X14128565Y-11972150D01*
X14128565Y-11991198D02*
X14138088Y-11981674D01*
X14138088Y-11981674D02*
X14157136Y-11972150D01*
X14157136Y-11972150D02*
X14185708Y-11972150D01*
X14185708Y-11972150D02*
X14204755Y-11981674D01*
X14204755Y-11981674D02*
X14214279Y-12000722D01*
X14214279Y-12000722D02*
X14214279Y-12105484D01*
X14214279Y-12000722D02*
X14223803Y-11981674D01*
X14223803Y-11981674D02*
X14242850Y-11972150D01*
X14242850Y-11972150D02*
X14271422Y-11972150D01*
X14271422Y-11972150D02*
X14290469Y-11981674D01*
X14290469Y-11981674D02*
X14299993Y-12000722D01*
X14299993Y-12000722D02*
X14299993Y-12105484D01*
X14690469Y-11895960D02*
X14519041Y-12153103D01*
X14947612Y-11905484D02*
X14966660Y-11905484D01*
X14966660Y-11905484D02*
X14985708Y-11915008D01*
X14985708Y-11915008D02*
X14995231Y-11924531D01*
X14995231Y-11924531D02*
X15004755Y-11943579D01*
X15004755Y-11943579D02*
X15014279Y-11981674D01*
X15014279Y-11981674D02*
X15014279Y-12029293D01*
X15014279Y-12029293D02*
X15004755Y-12067388D01*
X15004755Y-12067388D02*
X14995231Y-12086436D01*
X14995231Y-12086436D02*
X14985708Y-12095960D01*
X14985708Y-12095960D02*
X14966660Y-12105484D01*
X14966660Y-12105484D02*
X14947612Y-12105484D01*
X14947612Y-12105484D02*
X14928565Y-12095960D01*
X14928565Y-12095960D02*
X14919041Y-12086436D01*
X14919041Y-12086436D02*
X14909517Y-12067388D01*
X14909517Y-12067388D02*
X14899993Y-12029293D01*
X14899993Y-12029293D02*
X14899993Y-11981674D01*
X14899993Y-11981674D02*
X14909517Y-11943579D01*
X14909517Y-11943579D02*
X14919041Y-11924531D01*
X14919041Y-11924531D02*
X14928565Y-11915008D01*
X14928565Y-11915008D02*
X14947612Y-11905484D01*
X15099993Y-12086436D02*
X15109517Y-12095960D01*
X15109517Y-12095960D02*
X15099993Y-12105484D01*
X15099993Y-12105484D02*
X15090470Y-12095960D01*
X15090470Y-12095960D02*
X15099993Y-12086436D01*
X15099993Y-12086436D02*
X15099993Y-12105484D01*
X15233327Y-11905484D02*
X15252374Y-11905484D01*
X15252374Y-11905484D02*
X15271422Y-11915008D01*
X15271422Y-11915008D02*
X15280946Y-11924531D01*
X15280946Y-11924531D02*
X15290470Y-11943579D01*
X15290470Y-11943579D02*
X15299993Y-11981674D01*
X15299993Y-11981674D02*
X15299993Y-12029293D01*
X15299993Y-12029293D02*
X15290470Y-12067388D01*
X15290470Y-12067388D02*
X15280946Y-12086436D01*
X15280946Y-12086436D02*
X15271422Y-12095960D01*
X15271422Y-12095960D02*
X15252374Y-12105484D01*
X15252374Y-12105484D02*
X15233327Y-12105484D01*
X15233327Y-12105484D02*
X15214279Y-12095960D01*
X15214279Y-12095960D02*
X15204755Y-12086436D01*
X15204755Y-12086436D02*
X15195231Y-12067388D01*
X15195231Y-12067388D02*
X15185708Y-12029293D01*
X15185708Y-12029293D02*
X15185708Y-11981674D01*
X15185708Y-11981674D02*
X15195231Y-11943579D01*
X15195231Y-11943579D02*
X15204755Y-11924531D01*
X15204755Y-11924531D02*
X15214279Y-11915008D01*
X15214279Y-11915008D02*
X15233327Y-11905484D01*
X15490470Y-12105484D02*
X15376184Y-12105484D01*
X15433327Y-12105484D02*
X15433327Y-11905484D01*
X15433327Y-11905484D02*
X15414279Y-11934055D01*
X15414279Y-11934055D02*
X15395231Y-11953103D01*
X15395231Y-11953103D02*
X15376184Y-11962627D01*
X15671422Y-11905484D02*
X15576184Y-11905484D01*
X15576184Y-11905484D02*
X15566660Y-12000722D01*
X15566660Y-12000722D02*
X15576184Y-11991198D01*
X15576184Y-11991198D02*
X15595231Y-11981674D01*
X15595231Y-11981674D02*
X15642851Y-11981674D01*
X15642851Y-11981674D02*
X15661898Y-11991198D01*
X15661898Y-11991198D02*
X15671422Y-12000722D01*
X15671422Y-12000722D02*
X15680946Y-12019769D01*
X15680946Y-12019769D02*
X15680946Y-12067388D01*
X15680946Y-12067388D02*
X15671422Y-12086436D01*
X15671422Y-12086436D02*
X15661898Y-12095960D01*
X15661898Y-12095960D02*
X15642851Y-12105484D01*
X15642851Y-12105484D02*
X15595231Y-12105484D01*
X15595231Y-12105484D02*
X15576184Y-12095960D01*
X15576184Y-12095960D02*
X15566660Y-12086436D01*
X15747612Y-11905484D02*
X15880946Y-11905484D01*
X15880946Y-11905484D02*
X15795231Y-12105484D01*
X15947612Y-11905484D02*
X15947612Y-11943579D01*
X16023803Y-11905484D02*
X16023803Y-11943579D01*
X16319041Y-12181674D02*
X16309517Y-12172150D01*
X16309517Y-12172150D02*
X16290470Y-12143579D01*
X16290470Y-12143579D02*
X16280946Y-12124531D01*
X16280946Y-12124531D02*
X16271422Y-12095960D01*
X16271422Y-12095960D02*
X16261898Y-12048341D01*
X16261898Y-12048341D02*
X16261898Y-12010246D01*
X16261898Y-12010246D02*
X16271422Y-11962627D01*
X16271422Y-11962627D02*
X16280946Y-11934055D01*
X16280946Y-11934055D02*
X16290470Y-11915008D01*
X16290470Y-11915008D02*
X16309517Y-11886436D01*
X16309517Y-11886436D02*
X16319041Y-11876912D01*
X16490470Y-11905484D02*
X16395232Y-11905484D01*
X16395232Y-11905484D02*
X16385708Y-12000722D01*
X16385708Y-12000722D02*
X16395232Y-11991198D01*
X16395232Y-11991198D02*
X16414279Y-11981674D01*
X16414279Y-11981674D02*
X16461898Y-11981674D01*
X16461898Y-11981674D02*
X16480946Y-11991198D01*
X16480946Y-11991198D02*
X16490470Y-12000722D01*
X16490470Y-12000722D02*
X16499993Y-12019769D01*
X16499993Y-12019769D02*
X16499993Y-12067388D01*
X16499993Y-12067388D02*
X16490470Y-12086436D01*
X16490470Y-12086436D02*
X16480946Y-12095960D01*
X16480946Y-12095960D02*
X16461898Y-12105484D01*
X16461898Y-12105484D02*
X16414279Y-12105484D01*
X16414279Y-12105484D02*
X16395232Y-12095960D01*
X16395232Y-12095960D02*
X16385708Y-12086436D01*
X16623803Y-11905484D02*
X16642851Y-11905484D01*
X16642851Y-11905484D02*
X16661898Y-11915008D01*
X16661898Y-11915008D02*
X16671422Y-11924531D01*
X16671422Y-11924531D02*
X16680946Y-11943579D01*
X16680946Y-11943579D02*
X16690470Y-11981674D01*
X16690470Y-11981674D02*
X16690470Y-12029293D01*
X16690470Y-12029293D02*
X16680946Y-12067388D01*
X16680946Y-12067388D02*
X16671422Y-12086436D01*
X16671422Y-12086436D02*
X16661898Y-12095960D01*
X16661898Y-12095960D02*
X16642851Y-12105484D01*
X16642851Y-12105484D02*
X16623803Y-12105484D01*
X16623803Y-12105484D02*
X16604755Y-12095960D01*
X16604755Y-12095960D02*
X16595232Y-12086436D01*
X16595232Y-12086436D02*
X16585708Y-12067388D01*
X16585708Y-12067388D02*
X16576184Y-12029293D01*
X16576184Y-12029293D02*
X16576184Y-11981674D01*
X16576184Y-11981674D02*
X16585708Y-11943579D01*
X16585708Y-11943579D02*
X16595232Y-11924531D01*
X16595232Y-11924531D02*
X16604755Y-11915008D01*
X16604755Y-11915008D02*
X16623803Y-11905484D01*
X16928565Y-12105484D02*
X16928565Y-11905484D01*
X17014279Y-12105484D02*
X17014279Y-12000722D01*
X17014279Y-12000722D02*
X17004756Y-11981674D01*
X17004756Y-11981674D02*
X16985708Y-11972150D01*
X16985708Y-11972150D02*
X16957136Y-11972150D01*
X16957136Y-11972150D02*
X16938089Y-11981674D01*
X16938089Y-11981674D02*
X16928565Y-11991198D01*
X17138089Y-12105484D02*
X17119041Y-12095960D01*
X17119041Y-12095960D02*
X17109517Y-12086436D01*
X17109517Y-12086436D02*
X17099994Y-12067388D01*
X17099994Y-12067388D02*
X17099994Y-12010246D01*
X17099994Y-12010246D02*
X17109517Y-11991198D01*
X17109517Y-11991198D02*
X17119041Y-11981674D01*
X17119041Y-11981674D02*
X17138089Y-11972150D01*
X17138089Y-11972150D02*
X17166660Y-11972150D01*
X17166660Y-11972150D02*
X17185708Y-11981674D01*
X17185708Y-11981674D02*
X17195232Y-11991198D01*
X17195232Y-11991198D02*
X17204756Y-12010246D01*
X17204756Y-12010246D02*
X17204756Y-12067388D01*
X17204756Y-12067388D02*
X17195232Y-12086436D01*
X17195232Y-12086436D02*
X17185708Y-12095960D01*
X17185708Y-12095960D02*
X17166660Y-12105484D01*
X17166660Y-12105484D02*
X17138089Y-12105484D01*
X17319041Y-12105484D02*
X17299994Y-12095960D01*
X17299994Y-12095960D02*
X17290470Y-12076912D01*
X17290470Y-12076912D02*
X17290470Y-11905484D01*
X17471422Y-12095960D02*
X17452375Y-12105484D01*
X17452375Y-12105484D02*
X17414279Y-12105484D01*
X17414279Y-12105484D02*
X17395232Y-12095960D01*
X17395232Y-12095960D02*
X17385708Y-12076912D01*
X17385708Y-12076912D02*
X17385708Y-12000722D01*
X17385708Y-12000722D02*
X17395232Y-11981674D01*
X17395232Y-11981674D02*
X17414279Y-11972150D01*
X17414279Y-11972150D02*
X17452375Y-11972150D01*
X17452375Y-11972150D02*
X17471422Y-11981674D01*
X17471422Y-11981674D02*
X17480946Y-12000722D01*
X17480946Y-12000722D02*
X17480946Y-12019769D01*
X17480946Y-12019769D02*
X17385708Y-12038817D01*
X17557137Y-12095960D02*
X17576184Y-12105484D01*
X17576184Y-12105484D02*
X17614279Y-12105484D01*
X17614279Y-12105484D02*
X17633327Y-12095960D01*
X17633327Y-12095960D02*
X17642851Y-12076912D01*
X17642851Y-12076912D02*
X17642851Y-12067388D01*
X17642851Y-12067388D02*
X17633327Y-12048341D01*
X17633327Y-12048341D02*
X17614279Y-12038817D01*
X17614279Y-12038817D02*
X17585708Y-12038817D01*
X17585708Y-12038817D02*
X17566660Y-12029293D01*
X17566660Y-12029293D02*
X17557137Y-12010246D01*
X17557137Y-12010246D02*
X17557137Y-12000722D01*
X17557137Y-12000722D02*
X17566660Y-11981674D01*
X17566660Y-11981674D02*
X17585708Y-11972150D01*
X17585708Y-11972150D02*
X17614279Y-11972150D01*
X17614279Y-11972150D02*
X17633327Y-11981674D01*
X17709518Y-12181674D02*
X17719041Y-12172150D01*
X17719041Y-12172150D02*
X17738089Y-12143579D01*
X17738089Y-12143579D02*
X17747613Y-12124531D01*
X17747613Y-12124531D02*
X17757137Y-12095960D01*
X17757137Y-12095960D02*
X17766660Y-12048341D01*
X17766660Y-12048341D02*
X17766660Y-12010246D01*
X17766660Y-12010246D02*
X17757137Y-11962627D01*
X17757137Y-11962627D02*
X17747613Y-11934055D01*
X17747613Y-11934055D02*
X17738089Y-11915008D01*
X17738089Y-11915008D02*
X17719041Y-11886436D01*
X17719041Y-11886436D02*
X17709518Y-11876912D01*
D12*
X12706478Y-12240500D02*
X12706478Y-12315500D01*
X12668978Y-12278000D02*
X12743978Y-12278000D01*
D11*
X13042850Y-12169484D02*
X13061898Y-12169484D01*
X13061898Y-12169484D02*
X13080946Y-12179008D01*
X13080946Y-12179008D02*
X13090469Y-12188531D01*
X13090469Y-12188531D02*
X13099993Y-12207579D01*
X13099993Y-12207579D02*
X13109517Y-12245674D01*
X13109517Y-12245674D02*
X13109517Y-12293293D01*
X13109517Y-12293293D02*
X13099993Y-12331388D01*
X13099993Y-12331388D02*
X13090469Y-12350436D01*
X13090469Y-12350436D02*
X13080946Y-12359960D01*
X13080946Y-12359960D02*
X13061898Y-12369484D01*
X13061898Y-12369484D02*
X13042850Y-12369484D01*
X13042850Y-12369484D02*
X13023803Y-12359960D01*
X13023803Y-12359960D02*
X13014279Y-12350436D01*
X13014279Y-12350436D02*
X13004755Y-12331388D01*
X13004755Y-12331388D02*
X12995231Y-12293293D01*
X12995231Y-12293293D02*
X12995231Y-12245674D01*
X12995231Y-12245674D02*
X13004755Y-12207579D01*
X13004755Y-12207579D02*
X13014279Y-12188531D01*
X13014279Y-12188531D02*
X13023803Y-12179008D01*
X13023803Y-12179008D02*
X13042850Y-12169484D01*
X13195231Y-12350436D02*
X13204755Y-12359960D01*
X13204755Y-12359960D02*
X13195231Y-12369484D01*
X13195231Y-12369484D02*
X13185707Y-12359960D01*
X13185707Y-12359960D02*
X13195231Y-12350436D01*
X13195231Y-12350436D02*
X13195231Y-12369484D01*
X13271422Y-12169484D02*
X13404755Y-12169484D01*
X13404755Y-12169484D02*
X13319041Y-12369484D01*
X13576184Y-12169484D02*
X13480946Y-12169484D01*
X13480946Y-12169484D02*
X13471422Y-12264722D01*
X13471422Y-12264722D02*
X13480946Y-12255198D01*
X13480946Y-12255198D02*
X13499993Y-12245674D01*
X13499993Y-12245674D02*
X13547612Y-12245674D01*
X13547612Y-12245674D02*
X13566660Y-12255198D01*
X13566660Y-12255198D02*
X13576184Y-12264722D01*
X13576184Y-12264722D02*
X13585707Y-12283769D01*
X13585707Y-12283769D02*
X13585707Y-12331388D01*
X13585707Y-12331388D02*
X13576184Y-12350436D01*
X13576184Y-12350436D02*
X13566660Y-12359960D01*
X13566660Y-12359960D02*
X13547612Y-12369484D01*
X13547612Y-12369484D02*
X13499993Y-12369484D01*
X13499993Y-12369484D02*
X13480946Y-12359960D01*
X13480946Y-12359960D02*
X13471422Y-12350436D01*
X13709517Y-12169484D02*
X13728565Y-12169484D01*
X13728565Y-12169484D02*
X13747612Y-12179008D01*
X13747612Y-12179008D02*
X13757136Y-12188531D01*
X13757136Y-12188531D02*
X13766660Y-12207579D01*
X13766660Y-12207579D02*
X13776184Y-12245674D01*
X13776184Y-12245674D02*
X13776184Y-12293293D01*
X13776184Y-12293293D02*
X13766660Y-12331388D01*
X13766660Y-12331388D02*
X13757136Y-12350436D01*
X13757136Y-12350436D02*
X13747612Y-12359960D01*
X13747612Y-12359960D02*
X13728565Y-12369484D01*
X13728565Y-12369484D02*
X13709517Y-12369484D01*
X13709517Y-12369484D02*
X13690469Y-12359960D01*
X13690469Y-12359960D02*
X13680946Y-12350436D01*
X13680946Y-12350436D02*
X13671422Y-12331388D01*
X13671422Y-12331388D02*
X13661898Y-12293293D01*
X13661898Y-12293293D02*
X13661898Y-12245674D01*
X13661898Y-12245674D02*
X13671422Y-12207579D01*
X13671422Y-12207579D02*
X13680946Y-12188531D01*
X13680946Y-12188531D02*
X13690469Y-12179008D01*
X13690469Y-12179008D02*
X13709517Y-12169484D01*
X13861898Y-12369484D02*
X13861898Y-12236150D01*
X13861898Y-12255198D02*
X13871422Y-12245674D01*
X13871422Y-12245674D02*
X13890469Y-12236150D01*
X13890469Y-12236150D02*
X13919041Y-12236150D01*
X13919041Y-12236150D02*
X13938088Y-12245674D01*
X13938088Y-12245674D02*
X13947612Y-12264722D01*
X13947612Y-12264722D02*
X13947612Y-12369484D01*
X13947612Y-12264722D02*
X13957136Y-12245674D01*
X13957136Y-12245674D02*
X13976184Y-12236150D01*
X13976184Y-12236150D02*
X14004755Y-12236150D01*
X14004755Y-12236150D02*
X14023803Y-12245674D01*
X14023803Y-12245674D02*
X14033327Y-12264722D01*
X14033327Y-12264722D02*
X14033327Y-12369484D01*
X14128565Y-12369484D02*
X14128565Y-12236150D01*
X14128565Y-12255198D02*
X14138088Y-12245674D01*
X14138088Y-12245674D02*
X14157136Y-12236150D01*
X14157136Y-12236150D02*
X14185708Y-12236150D01*
X14185708Y-12236150D02*
X14204755Y-12245674D01*
X14204755Y-12245674D02*
X14214279Y-12264722D01*
X14214279Y-12264722D02*
X14214279Y-12369484D01*
X14214279Y-12264722D02*
X14223803Y-12245674D01*
X14223803Y-12245674D02*
X14242850Y-12236150D01*
X14242850Y-12236150D02*
X14271422Y-12236150D01*
X14271422Y-12236150D02*
X14290469Y-12245674D01*
X14290469Y-12245674D02*
X14299993Y-12264722D01*
X14299993Y-12264722D02*
X14299993Y-12369484D01*
X14690469Y-12159960D02*
X14519041Y-12417103D01*
X14947612Y-12169484D02*
X14966660Y-12169484D01*
X14966660Y-12169484D02*
X14985708Y-12179008D01*
X14985708Y-12179008D02*
X14995231Y-12188531D01*
X14995231Y-12188531D02*
X15004755Y-12207579D01*
X15004755Y-12207579D02*
X15014279Y-12245674D01*
X15014279Y-12245674D02*
X15014279Y-12293293D01*
X15014279Y-12293293D02*
X15004755Y-12331388D01*
X15004755Y-12331388D02*
X14995231Y-12350436D01*
X14995231Y-12350436D02*
X14985708Y-12359960D01*
X14985708Y-12359960D02*
X14966660Y-12369484D01*
X14966660Y-12369484D02*
X14947612Y-12369484D01*
X14947612Y-12369484D02*
X14928565Y-12359960D01*
X14928565Y-12359960D02*
X14919041Y-12350436D01*
X14919041Y-12350436D02*
X14909517Y-12331388D01*
X14909517Y-12331388D02*
X14899993Y-12293293D01*
X14899993Y-12293293D02*
X14899993Y-12245674D01*
X14899993Y-12245674D02*
X14909517Y-12207579D01*
X14909517Y-12207579D02*
X14919041Y-12188531D01*
X14919041Y-12188531D02*
X14928565Y-12179008D01*
X14928565Y-12179008D02*
X14947612Y-12169484D01*
X15099993Y-12350436D02*
X15109517Y-12359960D01*
X15109517Y-12359960D02*
X15099993Y-12369484D01*
X15099993Y-12369484D02*
X15090470Y-12359960D01*
X15090470Y-12359960D02*
X15099993Y-12350436D01*
X15099993Y-12350436D02*
X15099993Y-12369484D01*
X15233327Y-12169484D02*
X15252374Y-12169484D01*
X15252374Y-12169484D02*
X15271422Y-12179008D01*
X15271422Y-12179008D02*
X15280946Y-12188531D01*
X15280946Y-12188531D02*
X15290470Y-12207579D01*
X15290470Y-12207579D02*
X15299993Y-12245674D01*
X15299993Y-12245674D02*
X15299993Y-12293293D01*
X15299993Y-12293293D02*
X15290470Y-12331388D01*
X15290470Y-12331388D02*
X15280946Y-12350436D01*
X15280946Y-12350436D02*
X15271422Y-12359960D01*
X15271422Y-12359960D02*
X15252374Y-12369484D01*
X15252374Y-12369484D02*
X15233327Y-12369484D01*
X15233327Y-12369484D02*
X15214279Y-12359960D01*
X15214279Y-12359960D02*
X15204755Y-12350436D01*
X15204755Y-12350436D02*
X15195231Y-12331388D01*
X15195231Y-12331388D02*
X15185708Y-12293293D01*
X15185708Y-12293293D02*
X15185708Y-12245674D01*
X15185708Y-12245674D02*
X15195231Y-12207579D01*
X15195231Y-12207579D02*
X15204755Y-12188531D01*
X15204755Y-12188531D02*
X15214279Y-12179008D01*
X15214279Y-12179008D02*
X15233327Y-12169484D01*
X15376184Y-12188531D02*
X15385708Y-12179008D01*
X15385708Y-12179008D02*
X15404755Y-12169484D01*
X15404755Y-12169484D02*
X15452374Y-12169484D01*
X15452374Y-12169484D02*
X15471422Y-12179008D01*
X15471422Y-12179008D02*
X15480946Y-12188531D01*
X15480946Y-12188531D02*
X15490470Y-12207579D01*
X15490470Y-12207579D02*
X15490470Y-12226627D01*
X15490470Y-12226627D02*
X15480946Y-12255198D01*
X15480946Y-12255198D02*
X15366660Y-12369484D01*
X15366660Y-12369484D02*
X15490470Y-12369484D01*
X15585708Y-12369484D02*
X15623803Y-12369484D01*
X15623803Y-12369484D02*
X15642851Y-12359960D01*
X15642851Y-12359960D02*
X15652374Y-12350436D01*
X15652374Y-12350436D02*
X15671422Y-12321865D01*
X15671422Y-12321865D02*
X15680946Y-12283769D01*
X15680946Y-12283769D02*
X15680946Y-12207579D01*
X15680946Y-12207579D02*
X15671422Y-12188531D01*
X15671422Y-12188531D02*
X15661898Y-12179008D01*
X15661898Y-12179008D02*
X15642851Y-12169484D01*
X15642851Y-12169484D02*
X15604755Y-12169484D01*
X15604755Y-12169484D02*
X15585708Y-12179008D01*
X15585708Y-12179008D02*
X15576184Y-12188531D01*
X15576184Y-12188531D02*
X15566660Y-12207579D01*
X15566660Y-12207579D02*
X15566660Y-12255198D01*
X15566660Y-12255198D02*
X15576184Y-12274246D01*
X15576184Y-12274246D02*
X15585708Y-12283769D01*
X15585708Y-12283769D02*
X15604755Y-12293293D01*
X15604755Y-12293293D02*
X15642851Y-12293293D01*
X15642851Y-12293293D02*
X15661898Y-12283769D01*
X15661898Y-12283769D02*
X15671422Y-12274246D01*
X15671422Y-12274246D02*
X15680946Y-12255198D01*
X15861898Y-12169484D02*
X15766660Y-12169484D01*
X15766660Y-12169484D02*
X15757136Y-12264722D01*
X15757136Y-12264722D02*
X15766660Y-12255198D01*
X15766660Y-12255198D02*
X15785708Y-12245674D01*
X15785708Y-12245674D02*
X15833327Y-12245674D01*
X15833327Y-12245674D02*
X15852374Y-12255198D01*
X15852374Y-12255198D02*
X15861898Y-12264722D01*
X15861898Y-12264722D02*
X15871422Y-12283769D01*
X15871422Y-12283769D02*
X15871422Y-12331388D01*
X15871422Y-12331388D02*
X15861898Y-12350436D01*
X15861898Y-12350436D02*
X15852374Y-12359960D01*
X15852374Y-12359960D02*
X15833327Y-12369484D01*
X15833327Y-12369484D02*
X15785708Y-12369484D01*
X15785708Y-12369484D02*
X15766660Y-12359960D01*
X15766660Y-12359960D02*
X15757136Y-12350436D01*
X15947612Y-12169484D02*
X15947612Y-12207579D01*
X16023803Y-12169484D02*
X16023803Y-12207579D01*
X16319041Y-12445674D02*
X16309517Y-12436150D01*
X16309517Y-12436150D02*
X16290470Y-12407579D01*
X16290470Y-12407579D02*
X16280946Y-12388531D01*
X16280946Y-12388531D02*
X16271422Y-12359960D01*
X16271422Y-12359960D02*
X16261898Y-12312341D01*
X16261898Y-12312341D02*
X16261898Y-12274246D01*
X16261898Y-12274246D02*
X16271422Y-12226627D01*
X16271422Y-12226627D02*
X16280946Y-12198055D01*
X16280946Y-12198055D02*
X16290470Y-12179008D01*
X16290470Y-12179008D02*
X16309517Y-12150436D01*
X16309517Y-12150436D02*
X16319041Y-12140912D01*
X16385708Y-12188531D02*
X16395232Y-12179008D01*
X16395232Y-12179008D02*
X16414279Y-12169484D01*
X16414279Y-12169484D02*
X16461898Y-12169484D01*
X16461898Y-12169484D02*
X16480946Y-12179008D01*
X16480946Y-12179008D02*
X16490470Y-12188531D01*
X16490470Y-12188531D02*
X16499993Y-12207579D01*
X16499993Y-12207579D02*
X16499993Y-12226627D01*
X16499993Y-12226627D02*
X16490470Y-12255198D01*
X16490470Y-12255198D02*
X16376184Y-12369484D01*
X16376184Y-12369484D02*
X16499993Y-12369484D01*
X16738089Y-12369484D02*
X16738089Y-12169484D01*
X16823803Y-12369484D02*
X16823803Y-12264722D01*
X16823803Y-12264722D02*
X16814279Y-12245674D01*
X16814279Y-12245674D02*
X16795232Y-12236150D01*
X16795232Y-12236150D02*
X16766660Y-12236150D01*
X16766660Y-12236150D02*
X16747613Y-12245674D01*
X16747613Y-12245674D02*
X16738089Y-12255198D01*
X16947613Y-12369484D02*
X16928565Y-12359960D01*
X16928565Y-12359960D02*
X16919041Y-12350436D01*
X16919041Y-12350436D02*
X16909517Y-12331388D01*
X16909517Y-12331388D02*
X16909517Y-12274246D01*
X16909517Y-12274246D02*
X16919041Y-12255198D01*
X16919041Y-12255198D02*
X16928565Y-12245674D01*
X16928565Y-12245674D02*
X16947613Y-12236150D01*
X16947613Y-12236150D02*
X16976184Y-12236150D01*
X16976184Y-12236150D02*
X16995232Y-12245674D01*
X16995232Y-12245674D02*
X17004756Y-12255198D01*
X17004756Y-12255198D02*
X17014279Y-12274246D01*
X17014279Y-12274246D02*
X17014279Y-12331388D01*
X17014279Y-12331388D02*
X17004756Y-12350436D01*
X17004756Y-12350436D02*
X16995232Y-12359960D01*
X16995232Y-12359960D02*
X16976184Y-12369484D01*
X16976184Y-12369484D02*
X16947613Y-12369484D01*
X17128565Y-12369484D02*
X17109517Y-12359960D01*
X17109517Y-12359960D02*
X17099994Y-12340912D01*
X17099994Y-12340912D02*
X17099994Y-12169484D01*
X17280946Y-12359960D02*
X17261898Y-12369484D01*
X17261898Y-12369484D02*
X17223803Y-12369484D01*
X17223803Y-12369484D02*
X17204756Y-12359960D01*
X17204756Y-12359960D02*
X17195232Y-12340912D01*
X17195232Y-12340912D02*
X17195232Y-12264722D01*
X17195232Y-12264722D02*
X17204756Y-12245674D01*
X17204756Y-12245674D02*
X17223803Y-12236150D01*
X17223803Y-12236150D02*
X17261898Y-12236150D01*
X17261898Y-12236150D02*
X17280946Y-12245674D01*
X17280946Y-12245674D02*
X17290470Y-12264722D01*
X17290470Y-12264722D02*
X17290470Y-12283769D01*
X17290470Y-12283769D02*
X17195232Y-12302817D01*
X17366660Y-12359960D02*
X17385708Y-12369484D01*
X17385708Y-12369484D02*
X17423803Y-12369484D01*
X17423803Y-12369484D02*
X17442851Y-12359960D01*
X17442851Y-12359960D02*
X17452375Y-12340912D01*
X17452375Y-12340912D02*
X17452375Y-12331388D01*
X17452375Y-12331388D02*
X17442851Y-12312341D01*
X17442851Y-12312341D02*
X17423803Y-12302817D01*
X17423803Y-12302817D02*
X17395232Y-12302817D01*
X17395232Y-12302817D02*
X17376184Y-12293293D01*
X17376184Y-12293293D02*
X17366660Y-12274246D01*
X17366660Y-12274246D02*
X17366660Y-12264722D01*
X17366660Y-12264722D02*
X17376184Y-12245674D01*
X17376184Y-12245674D02*
X17395232Y-12236150D01*
X17395232Y-12236150D02*
X17423803Y-12236150D01*
X17423803Y-12236150D02*
X17442851Y-12245674D01*
X17519041Y-12445674D02*
X17528565Y-12436150D01*
X17528565Y-12436150D02*
X17547613Y-12407579D01*
X17547613Y-12407579D02*
X17557137Y-12388531D01*
X17557137Y-12388531D02*
X17566660Y-12359960D01*
X17566660Y-12359960D02*
X17576184Y-12312341D01*
X17576184Y-12312341D02*
X17576184Y-12274246D01*
X17576184Y-12274246D02*
X17566660Y-12226627D01*
X17566660Y-12226627D02*
X17557137Y-12198055D01*
X17557137Y-12198055D02*
X17547613Y-12179008D01*
X17547613Y-12179008D02*
X17528565Y-12150436D01*
X17528565Y-12150436D02*
X17519041Y-12140912D01*
D12*
X12729334Y-12577356D02*
X12729334Y-12506644D01*
X12658623Y-12506644D01*
X12658623Y-12577356D01*
X12729334Y-12577356D01*
D11*
X13109517Y-12633484D02*
X12995231Y-12633484D01*
X13052374Y-12633484D02*
X13052374Y-12433484D01*
X13052374Y-12433484D02*
X13033326Y-12462055D01*
X13033326Y-12462055D02*
X13014279Y-12481103D01*
X13014279Y-12481103D02*
X12995231Y-12490627D01*
X13195231Y-12614436D02*
X13204755Y-12623960D01*
X13204755Y-12623960D02*
X13195231Y-12633484D01*
X13195231Y-12633484D02*
X13185707Y-12623960D01*
X13185707Y-12623960D02*
X13195231Y-12614436D01*
X13195231Y-12614436D02*
X13195231Y-12633484D01*
X13328565Y-12433484D02*
X13347612Y-12433484D01*
X13347612Y-12433484D02*
X13366660Y-12443008D01*
X13366660Y-12443008D02*
X13376184Y-12452531D01*
X13376184Y-12452531D02*
X13385707Y-12471579D01*
X13385707Y-12471579D02*
X13395231Y-12509674D01*
X13395231Y-12509674D02*
X13395231Y-12557293D01*
X13395231Y-12557293D02*
X13385707Y-12595388D01*
X13385707Y-12595388D02*
X13376184Y-12614436D01*
X13376184Y-12614436D02*
X13366660Y-12623960D01*
X13366660Y-12623960D02*
X13347612Y-12633484D01*
X13347612Y-12633484D02*
X13328565Y-12633484D01*
X13328565Y-12633484D02*
X13309517Y-12623960D01*
X13309517Y-12623960D02*
X13299993Y-12614436D01*
X13299993Y-12614436D02*
X13290469Y-12595388D01*
X13290469Y-12595388D02*
X13280946Y-12557293D01*
X13280946Y-12557293D02*
X13280946Y-12509674D01*
X13280946Y-12509674D02*
X13290469Y-12471579D01*
X13290469Y-12471579D02*
X13299993Y-12452531D01*
X13299993Y-12452531D02*
X13309517Y-12443008D01*
X13309517Y-12443008D02*
X13328565Y-12433484D01*
X13519041Y-12433484D02*
X13538088Y-12433484D01*
X13538088Y-12433484D02*
X13557136Y-12443008D01*
X13557136Y-12443008D02*
X13566660Y-12452531D01*
X13566660Y-12452531D02*
X13576184Y-12471579D01*
X13576184Y-12471579D02*
X13585707Y-12509674D01*
X13585707Y-12509674D02*
X13585707Y-12557293D01*
X13585707Y-12557293D02*
X13576184Y-12595388D01*
X13576184Y-12595388D02*
X13566660Y-12614436D01*
X13566660Y-12614436D02*
X13557136Y-12623960D01*
X13557136Y-12623960D02*
X13538088Y-12633484D01*
X13538088Y-12633484D02*
X13519041Y-12633484D01*
X13519041Y-12633484D02*
X13499993Y-12623960D01*
X13499993Y-12623960D02*
X13490469Y-12614436D01*
X13490469Y-12614436D02*
X13480946Y-12595388D01*
X13480946Y-12595388D02*
X13471422Y-12557293D01*
X13471422Y-12557293D02*
X13471422Y-12509674D01*
X13471422Y-12509674D02*
X13480946Y-12471579D01*
X13480946Y-12471579D02*
X13490469Y-12452531D01*
X13490469Y-12452531D02*
X13499993Y-12443008D01*
X13499993Y-12443008D02*
X13519041Y-12433484D01*
X13709517Y-12433484D02*
X13728565Y-12433484D01*
X13728565Y-12433484D02*
X13747612Y-12443008D01*
X13747612Y-12443008D02*
X13757136Y-12452531D01*
X13757136Y-12452531D02*
X13766660Y-12471579D01*
X13766660Y-12471579D02*
X13776184Y-12509674D01*
X13776184Y-12509674D02*
X13776184Y-12557293D01*
X13776184Y-12557293D02*
X13766660Y-12595388D01*
X13766660Y-12595388D02*
X13757136Y-12614436D01*
X13757136Y-12614436D02*
X13747612Y-12623960D01*
X13747612Y-12623960D02*
X13728565Y-12633484D01*
X13728565Y-12633484D02*
X13709517Y-12633484D01*
X13709517Y-12633484D02*
X13690469Y-12623960D01*
X13690469Y-12623960D02*
X13680946Y-12614436D01*
X13680946Y-12614436D02*
X13671422Y-12595388D01*
X13671422Y-12595388D02*
X13661898Y-12557293D01*
X13661898Y-12557293D02*
X13661898Y-12509674D01*
X13661898Y-12509674D02*
X13671422Y-12471579D01*
X13671422Y-12471579D02*
X13680946Y-12452531D01*
X13680946Y-12452531D02*
X13690469Y-12443008D01*
X13690469Y-12443008D02*
X13709517Y-12433484D01*
X13861898Y-12633484D02*
X13861898Y-12500150D01*
X13861898Y-12519198D02*
X13871422Y-12509674D01*
X13871422Y-12509674D02*
X13890469Y-12500150D01*
X13890469Y-12500150D02*
X13919041Y-12500150D01*
X13919041Y-12500150D02*
X13938088Y-12509674D01*
X13938088Y-12509674D02*
X13947612Y-12528722D01*
X13947612Y-12528722D02*
X13947612Y-12633484D01*
X13947612Y-12528722D02*
X13957136Y-12509674D01*
X13957136Y-12509674D02*
X13976184Y-12500150D01*
X13976184Y-12500150D02*
X14004755Y-12500150D01*
X14004755Y-12500150D02*
X14023803Y-12509674D01*
X14023803Y-12509674D02*
X14033327Y-12528722D01*
X14033327Y-12528722D02*
X14033327Y-12633484D01*
X14128565Y-12633484D02*
X14128565Y-12500150D01*
X14128565Y-12519198D02*
X14138088Y-12509674D01*
X14138088Y-12509674D02*
X14157136Y-12500150D01*
X14157136Y-12500150D02*
X14185708Y-12500150D01*
X14185708Y-12500150D02*
X14204755Y-12509674D01*
X14204755Y-12509674D02*
X14214279Y-12528722D01*
X14214279Y-12528722D02*
X14214279Y-12633484D01*
X14214279Y-12528722D02*
X14223803Y-12509674D01*
X14223803Y-12509674D02*
X14242850Y-12500150D01*
X14242850Y-12500150D02*
X14271422Y-12500150D01*
X14271422Y-12500150D02*
X14290469Y-12509674D01*
X14290469Y-12509674D02*
X14299993Y-12528722D01*
X14299993Y-12528722D02*
X14299993Y-12633484D01*
X14690469Y-12423960D02*
X14519041Y-12681103D01*
X14947612Y-12433484D02*
X14966660Y-12433484D01*
X14966660Y-12433484D02*
X14985708Y-12443008D01*
X14985708Y-12443008D02*
X14995231Y-12452531D01*
X14995231Y-12452531D02*
X15004755Y-12471579D01*
X15004755Y-12471579D02*
X15014279Y-12509674D01*
X15014279Y-12509674D02*
X15014279Y-12557293D01*
X15014279Y-12557293D02*
X15004755Y-12595388D01*
X15004755Y-12595388D02*
X14995231Y-12614436D01*
X14995231Y-12614436D02*
X14985708Y-12623960D01*
X14985708Y-12623960D02*
X14966660Y-12633484D01*
X14966660Y-12633484D02*
X14947612Y-12633484D01*
X14947612Y-12633484D02*
X14928565Y-12623960D01*
X14928565Y-12623960D02*
X14919041Y-12614436D01*
X14919041Y-12614436D02*
X14909517Y-12595388D01*
X14909517Y-12595388D02*
X14899993Y-12557293D01*
X14899993Y-12557293D02*
X14899993Y-12509674D01*
X14899993Y-12509674D02*
X14909517Y-12471579D01*
X14909517Y-12471579D02*
X14919041Y-12452531D01*
X14919041Y-12452531D02*
X14928565Y-12443008D01*
X14928565Y-12443008D02*
X14947612Y-12433484D01*
X15099993Y-12614436D02*
X15109517Y-12623960D01*
X15109517Y-12623960D02*
X15099993Y-12633484D01*
X15099993Y-12633484D02*
X15090470Y-12623960D01*
X15090470Y-12623960D02*
X15099993Y-12614436D01*
X15099993Y-12614436D02*
X15099993Y-12633484D01*
X15233327Y-12433484D02*
X15252374Y-12433484D01*
X15252374Y-12433484D02*
X15271422Y-12443008D01*
X15271422Y-12443008D02*
X15280946Y-12452531D01*
X15280946Y-12452531D02*
X15290470Y-12471579D01*
X15290470Y-12471579D02*
X15299993Y-12509674D01*
X15299993Y-12509674D02*
X15299993Y-12557293D01*
X15299993Y-12557293D02*
X15290470Y-12595388D01*
X15290470Y-12595388D02*
X15280946Y-12614436D01*
X15280946Y-12614436D02*
X15271422Y-12623960D01*
X15271422Y-12623960D02*
X15252374Y-12633484D01*
X15252374Y-12633484D02*
X15233327Y-12633484D01*
X15233327Y-12633484D02*
X15214279Y-12623960D01*
X15214279Y-12623960D02*
X15204755Y-12614436D01*
X15204755Y-12614436D02*
X15195231Y-12595388D01*
X15195231Y-12595388D02*
X15185708Y-12557293D01*
X15185708Y-12557293D02*
X15185708Y-12509674D01*
X15185708Y-12509674D02*
X15195231Y-12471579D01*
X15195231Y-12471579D02*
X15204755Y-12452531D01*
X15204755Y-12452531D02*
X15214279Y-12443008D01*
X15214279Y-12443008D02*
X15233327Y-12433484D01*
X15366660Y-12433484D02*
X15490470Y-12433484D01*
X15490470Y-12433484D02*
X15423803Y-12509674D01*
X15423803Y-12509674D02*
X15452374Y-12509674D01*
X15452374Y-12509674D02*
X15471422Y-12519198D01*
X15471422Y-12519198D02*
X15480946Y-12528722D01*
X15480946Y-12528722D02*
X15490470Y-12547769D01*
X15490470Y-12547769D02*
X15490470Y-12595388D01*
X15490470Y-12595388D02*
X15480946Y-12614436D01*
X15480946Y-12614436D02*
X15471422Y-12623960D01*
X15471422Y-12623960D02*
X15452374Y-12633484D01*
X15452374Y-12633484D02*
X15395231Y-12633484D01*
X15395231Y-12633484D02*
X15376184Y-12623960D01*
X15376184Y-12623960D02*
X15366660Y-12614436D01*
X15585708Y-12633484D02*
X15623803Y-12633484D01*
X15623803Y-12633484D02*
X15642851Y-12623960D01*
X15642851Y-12623960D02*
X15652374Y-12614436D01*
X15652374Y-12614436D02*
X15671422Y-12585865D01*
X15671422Y-12585865D02*
X15680946Y-12547769D01*
X15680946Y-12547769D02*
X15680946Y-12471579D01*
X15680946Y-12471579D02*
X15671422Y-12452531D01*
X15671422Y-12452531D02*
X15661898Y-12443008D01*
X15661898Y-12443008D02*
X15642851Y-12433484D01*
X15642851Y-12433484D02*
X15604755Y-12433484D01*
X15604755Y-12433484D02*
X15585708Y-12443008D01*
X15585708Y-12443008D02*
X15576184Y-12452531D01*
X15576184Y-12452531D02*
X15566660Y-12471579D01*
X15566660Y-12471579D02*
X15566660Y-12519198D01*
X15566660Y-12519198D02*
X15576184Y-12538246D01*
X15576184Y-12538246D02*
X15585708Y-12547769D01*
X15585708Y-12547769D02*
X15604755Y-12557293D01*
X15604755Y-12557293D02*
X15642851Y-12557293D01*
X15642851Y-12557293D02*
X15661898Y-12547769D01*
X15661898Y-12547769D02*
X15671422Y-12538246D01*
X15671422Y-12538246D02*
X15680946Y-12519198D01*
X15852374Y-12500150D02*
X15852374Y-12633484D01*
X15804755Y-12423960D02*
X15757136Y-12566817D01*
X15757136Y-12566817D02*
X15880946Y-12566817D01*
X15947612Y-12433484D02*
X15947612Y-12471579D01*
X16023803Y-12433484D02*
X16023803Y-12471579D01*
X16319041Y-12709674D02*
X16309517Y-12700150D01*
X16309517Y-12700150D02*
X16290470Y-12671579D01*
X16290470Y-12671579D02*
X16280946Y-12652531D01*
X16280946Y-12652531D02*
X16271422Y-12623960D01*
X16271422Y-12623960D02*
X16261898Y-12576341D01*
X16261898Y-12576341D02*
X16261898Y-12538246D01*
X16261898Y-12538246D02*
X16271422Y-12490627D01*
X16271422Y-12490627D02*
X16280946Y-12462055D01*
X16280946Y-12462055D02*
X16290470Y-12443008D01*
X16290470Y-12443008D02*
X16309517Y-12414436D01*
X16309517Y-12414436D02*
X16319041Y-12404912D01*
X16385708Y-12452531D02*
X16395232Y-12443008D01*
X16395232Y-12443008D02*
X16414279Y-12433484D01*
X16414279Y-12433484D02*
X16461898Y-12433484D01*
X16461898Y-12433484D02*
X16480946Y-12443008D01*
X16480946Y-12443008D02*
X16490470Y-12452531D01*
X16490470Y-12452531D02*
X16499993Y-12471579D01*
X16499993Y-12471579D02*
X16499993Y-12490627D01*
X16499993Y-12490627D02*
X16490470Y-12519198D01*
X16490470Y-12519198D02*
X16376184Y-12633484D01*
X16376184Y-12633484D02*
X16499993Y-12633484D01*
X16738089Y-12633484D02*
X16738089Y-12433484D01*
X16823803Y-12633484D02*
X16823803Y-12528722D01*
X16823803Y-12528722D02*
X16814279Y-12509674D01*
X16814279Y-12509674D02*
X16795232Y-12500150D01*
X16795232Y-12500150D02*
X16766660Y-12500150D01*
X16766660Y-12500150D02*
X16747613Y-12509674D01*
X16747613Y-12509674D02*
X16738089Y-12519198D01*
X16947613Y-12633484D02*
X16928565Y-12623960D01*
X16928565Y-12623960D02*
X16919041Y-12614436D01*
X16919041Y-12614436D02*
X16909517Y-12595388D01*
X16909517Y-12595388D02*
X16909517Y-12538246D01*
X16909517Y-12538246D02*
X16919041Y-12519198D01*
X16919041Y-12519198D02*
X16928565Y-12509674D01*
X16928565Y-12509674D02*
X16947613Y-12500150D01*
X16947613Y-12500150D02*
X16976184Y-12500150D01*
X16976184Y-12500150D02*
X16995232Y-12509674D01*
X16995232Y-12509674D02*
X17004756Y-12519198D01*
X17004756Y-12519198D02*
X17014279Y-12538246D01*
X17014279Y-12538246D02*
X17014279Y-12595388D01*
X17014279Y-12595388D02*
X17004756Y-12614436D01*
X17004756Y-12614436D02*
X16995232Y-12623960D01*
X16995232Y-12623960D02*
X16976184Y-12633484D01*
X16976184Y-12633484D02*
X16947613Y-12633484D01*
X17128565Y-12633484D02*
X17109517Y-12623960D01*
X17109517Y-12623960D02*
X17099994Y-12604912D01*
X17099994Y-12604912D02*
X17099994Y-12433484D01*
X17280946Y-12623960D02*
X17261898Y-12633484D01*
X17261898Y-12633484D02*
X17223803Y-12633484D01*
X17223803Y-12633484D02*
X17204756Y-12623960D01*
X17204756Y-12623960D02*
X17195232Y-12604912D01*
X17195232Y-12604912D02*
X17195232Y-12528722D01*
X17195232Y-12528722D02*
X17204756Y-12509674D01*
X17204756Y-12509674D02*
X17223803Y-12500150D01*
X17223803Y-12500150D02*
X17261898Y-12500150D01*
X17261898Y-12500150D02*
X17280946Y-12509674D01*
X17280946Y-12509674D02*
X17290470Y-12528722D01*
X17290470Y-12528722D02*
X17290470Y-12547769D01*
X17290470Y-12547769D02*
X17195232Y-12566817D01*
X17366660Y-12623960D02*
X17385708Y-12633484D01*
X17385708Y-12633484D02*
X17423803Y-12633484D01*
X17423803Y-12633484D02*
X17442851Y-12623960D01*
X17442851Y-12623960D02*
X17452375Y-12604912D01*
X17452375Y-12604912D02*
X17452375Y-12595388D01*
X17452375Y-12595388D02*
X17442851Y-12576341D01*
X17442851Y-12576341D02*
X17423803Y-12566817D01*
X17423803Y-12566817D02*
X17395232Y-12566817D01*
X17395232Y-12566817D02*
X17376184Y-12557293D01*
X17376184Y-12557293D02*
X17366660Y-12538246D01*
X17366660Y-12538246D02*
X17366660Y-12528722D01*
X17366660Y-12528722D02*
X17376184Y-12509674D01*
X17376184Y-12509674D02*
X17395232Y-12500150D01*
X17395232Y-12500150D02*
X17423803Y-12500150D01*
X17423803Y-12500150D02*
X17442851Y-12509674D01*
X17519041Y-12709674D02*
X17528565Y-12700150D01*
X17528565Y-12700150D02*
X17547613Y-12671579D01*
X17547613Y-12671579D02*
X17557137Y-12652531D01*
X17557137Y-12652531D02*
X17566660Y-12623960D01*
X17566660Y-12623960D02*
X17576184Y-12576341D01*
X17576184Y-12576341D02*
X17576184Y-12538246D01*
X17576184Y-12538246D02*
X17566660Y-12490627D01*
X17566660Y-12490627D02*
X17557137Y-12462055D01*
X17557137Y-12462055D02*
X17547613Y-12443008D01*
X17547613Y-12443008D02*
X17528565Y-12414436D01*
X17528565Y-12414436D02*
X17519041Y-12404912D01*
M02*
