%TF.GenerationSoftware,KiCad,Pcbnew,10.0.3*%
%TF.CreationDate,2026-06-12T02:27:38+05:00*%
%TF.ProjectId,Battery_Powered_3.3V_Regulator,42617474-6572-4795-9f50-6f7765726564,rev?*%
%TF.SameCoordinates,Original*%
%TF.FileFunction,Legend,Top*%
%TF.FilePolarity,Positive*%
%FSLAX46Y46*%
G04 Gerber Fmt 4.6, Leading zero omitted, Abs format (unit mm)*
G04 Created by KiCad (PCBNEW 10.0.3) date 2026-06-12 02:27:38*
%MOMM*%
%LPD*%
G01*
G04 APERTURE LIST*
%ADD10C,0.200000*%
%ADD11C,0.160000*%
%ADD12C,0.150000*%
%ADD13C,0.120000*%
G04 APERTURE END LIST*
D10*
X155320863Y-97691695D02*
X155816101Y-97691695D01*
X155816101Y-97691695D02*
X155549435Y-97996457D01*
X155549435Y-97996457D02*
X155663720Y-97996457D01*
X155663720Y-97996457D02*
X155739911Y-98034552D01*
X155739911Y-98034552D02*
X155778006Y-98072647D01*
X155778006Y-98072647D02*
X155816101Y-98148838D01*
X155816101Y-98148838D02*
X155816101Y-98339314D01*
X155816101Y-98339314D02*
X155778006Y-98415504D01*
X155778006Y-98415504D02*
X155739911Y-98453600D01*
X155739911Y-98453600D02*
X155663720Y-98491695D01*
X155663720Y-98491695D02*
X155435149Y-98491695D01*
X155435149Y-98491695D02*
X155358958Y-98453600D01*
X155358958Y-98453600D02*
X155320863Y-98415504D01*
X156158959Y-98415504D02*
X156197054Y-98453600D01*
X156197054Y-98453600D02*
X156158959Y-98491695D01*
X156158959Y-98491695D02*
X156120863Y-98453600D01*
X156120863Y-98453600D02*
X156158959Y-98415504D01*
X156158959Y-98415504D02*
X156158959Y-98491695D01*
X156463720Y-97691695D02*
X156958958Y-97691695D01*
X156958958Y-97691695D02*
X156692292Y-97996457D01*
X156692292Y-97996457D02*
X156806577Y-97996457D01*
X156806577Y-97996457D02*
X156882768Y-98034552D01*
X156882768Y-98034552D02*
X156920863Y-98072647D01*
X156920863Y-98072647D02*
X156958958Y-98148838D01*
X156958958Y-98148838D02*
X156958958Y-98339314D01*
X156958958Y-98339314D02*
X156920863Y-98415504D01*
X156920863Y-98415504D02*
X156882768Y-98453600D01*
X156882768Y-98453600D02*
X156806577Y-98491695D01*
X156806577Y-98491695D02*
X156578006Y-98491695D01*
X156578006Y-98491695D02*
X156501815Y-98453600D01*
X156501815Y-98453600D02*
X156463720Y-98415504D01*
X157187530Y-97691695D02*
X157454197Y-98491695D01*
X157454197Y-98491695D02*
X157720863Y-97691695D01*
X143693482Y-98264838D02*
X143598244Y-98217219D01*
X143598244Y-98217219D02*
X143455387Y-98217219D01*
X143455387Y-98217219D02*
X143312530Y-98264838D01*
X143312530Y-98264838D02*
X143217292Y-98360076D01*
X143217292Y-98360076D02*
X143169673Y-98455314D01*
X143169673Y-98455314D02*
X143122054Y-98645790D01*
X143122054Y-98645790D02*
X143122054Y-98788647D01*
X143122054Y-98788647D02*
X143169673Y-98979123D01*
X143169673Y-98979123D02*
X143217292Y-99074361D01*
X143217292Y-99074361D02*
X143312530Y-99169600D01*
X143312530Y-99169600D02*
X143455387Y-99217219D01*
X143455387Y-99217219D02*
X143550625Y-99217219D01*
X143550625Y-99217219D02*
X143693482Y-99169600D01*
X143693482Y-99169600D02*
X143741101Y-99121980D01*
X143741101Y-99121980D02*
X143741101Y-98788647D01*
X143741101Y-98788647D02*
X143550625Y-98788647D01*
X144169673Y-99217219D02*
X144169673Y-98217219D01*
X144169673Y-98217219D02*
X144741101Y-99217219D01*
X144741101Y-99217219D02*
X144741101Y-98217219D01*
X145217292Y-99217219D02*
X145217292Y-98217219D01*
X145217292Y-98217219D02*
X145455387Y-98217219D01*
X145455387Y-98217219D02*
X145598244Y-98264838D01*
X145598244Y-98264838D02*
X145693482Y-98360076D01*
X145693482Y-98360076D02*
X145741101Y-98455314D01*
X145741101Y-98455314D02*
X145788720Y-98645790D01*
X145788720Y-98645790D02*
X145788720Y-98788647D01*
X145788720Y-98788647D02*
X145741101Y-98979123D01*
X145741101Y-98979123D02*
X145693482Y-99074361D01*
X145693482Y-99074361D02*
X145598244Y-99169600D01*
X145598244Y-99169600D02*
X145455387Y-99217219D01*
X145455387Y-99217219D02*
X145217292Y-99217219D01*
D11*
X158696072Y-108981224D02*
X158200834Y-108981224D01*
X158200834Y-108981224D02*
X158467500Y-108676462D01*
X158467500Y-108676462D02*
X158353215Y-108676462D01*
X158353215Y-108676462D02*
X158277024Y-108638367D01*
X158277024Y-108638367D02*
X158238929Y-108600272D01*
X158238929Y-108600272D02*
X158200834Y-108524081D01*
X158200834Y-108524081D02*
X158200834Y-108333605D01*
X158200834Y-108333605D02*
X158238929Y-108257415D01*
X158238929Y-108257415D02*
X158277024Y-108219320D01*
X158277024Y-108219320D02*
X158353215Y-108181224D01*
X158353215Y-108181224D02*
X158581786Y-108181224D01*
X158581786Y-108181224D02*
X158657977Y-108219320D01*
X158657977Y-108219320D02*
X158696072Y-108257415D01*
X157972262Y-108981224D02*
X157705595Y-108181224D01*
X157705595Y-108181224D02*
X157438929Y-108981224D01*
X157248453Y-108981224D02*
X156753215Y-108981224D01*
X156753215Y-108981224D02*
X157019881Y-108676462D01*
X157019881Y-108676462D02*
X156905596Y-108676462D01*
X156905596Y-108676462D02*
X156829405Y-108638367D01*
X156829405Y-108638367D02*
X156791310Y-108600272D01*
X156791310Y-108600272D02*
X156753215Y-108524081D01*
X156753215Y-108524081D02*
X156753215Y-108333605D01*
X156753215Y-108333605D02*
X156791310Y-108257415D01*
X156791310Y-108257415D02*
X156829405Y-108219320D01*
X156829405Y-108219320D02*
X156905596Y-108181224D01*
X156905596Y-108181224D02*
X157134167Y-108181224D01*
X157134167Y-108181224D02*
X157210358Y-108219320D01*
X157210358Y-108219320D02*
X157248453Y-108257415D01*
D12*
X162356077Y-109105180D02*
X162022744Y-108105180D01*
X162022744Y-108105180D02*
X161689411Y-109105180D01*
X161213220Y-108105180D02*
X161308458Y-108152800D01*
X161308458Y-108152800D02*
X161356077Y-108200419D01*
X161356077Y-108200419D02*
X161403696Y-108295657D01*
X161403696Y-108295657D02*
X161403696Y-108581371D01*
X161403696Y-108581371D02*
X161356077Y-108676609D01*
X161356077Y-108676609D02*
X161308458Y-108724228D01*
X161308458Y-108724228D02*
X161213220Y-108771847D01*
X161213220Y-108771847D02*
X161070363Y-108771847D01*
X161070363Y-108771847D02*
X160975125Y-108724228D01*
X160975125Y-108724228D02*
X160927506Y-108676609D01*
X160927506Y-108676609D02*
X160879887Y-108581371D01*
X160879887Y-108581371D02*
X160879887Y-108295657D01*
X160879887Y-108295657D02*
X160927506Y-108200419D01*
X160927506Y-108200419D02*
X160975125Y-108152800D01*
X160975125Y-108152800D02*
X161070363Y-108105180D01*
X161070363Y-108105180D02*
X161213220Y-108105180D01*
X160022744Y-108771847D02*
X160022744Y-108105180D01*
X160451315Y-108771847D02*
X160451315Y-108248038D01*
X160451315Y-108248038D02*
X160403696Y-108152800D01*
X160403696Y-108152800D02*
X160308458Y-108105180D01*
X160308458Y-108105180D02*
X160165601Y-108105180D01*
X160165601Y-108105180D02*
X160070363Y-108152800D01*
X160070363Y-108152800D02*
X160022744Y-108200419D01*
X159689410Y-108771847D02*
X159308458Y-108771847D01*
X159546553Y-109105180D02*
X159546553Y-108248038D01*
X159546553Y-108248038D02*
X159498934Y-108152800D01*
X159498934Y-108152800D02*
X159403696Y-108105180D01*
X159403696Y-108105180D02*
X159308458Y-108105180D01*
X129493922Y-99594819D02*
X129827255Y-100594819D01*
X129827255Y-100594819D02*
X130160588Y-99594819D01*
X130493922Y-100594819D02*
X130493922Y-99928152D01*
X130493922Y-99594819D02*
X130446303Y-99642438D01*
X130446303Y-99642438D02*
X130493922Y-99690057D01*
X130493922Y-99690057D02*
X130541541Y-99642438D01*
X130541541Y-99642438D02*
X130493922Y-99594819D01*
X130493922Y-99594819D02*
X130493922Y-99690057D01*
X130970112Y-99928152D02*
X130970112Y-100594819D01*
X130970112Y-100023390D02*
X131017731Y-99975771D01*
X131017731Y-99975771D02*
X131112969Y-99928152D01*
X131112969Y-99928152D02*
X131255826Y-99928152D01*
X131255826Y-99928152D02*
X131351064Y-99975771D01*
X131351064Y-99975771D02*
X131398683Y-100071009D01*
X131398683Y-100071009D02*
X131398683Y-100594819D01*
X148566033Y-108008333D02*
X149132700Y-108008333D01*
X149132700Y-108008333D02*
X149199366Y-107975000D01*
X149199366Y-107975000D02*
X149232700Y-107941666D01*
X149232700Y-107941666D02*
X149266033Y-107875000D01*
X149266033Y-107875000D02*
X149266033Y-107741666D01*
X149266033Y-107741666D02*
X149232700Y-107675000D01*
X149232700Y-107675000D02*
X149199366Y-107641666D01*
X149199366Y-107641666D02*
X149132700Y-107608333D01*
X149132700Y-107608333D02*
X148566033Y-107608333D01*
X149266033Y-106908333D02*
X149266033Y-107308333D01*
X149266033Y-107108333D02*
X148566033Y-107108333D01*
X148566033Y-107108333D02*
X148666033Y-107175000D01*
X148666033Y-107175000D02*
X148732700Y-107241667D01*
X148732700Y-107241667D02*
X148766033Y-107308333D01*
X142232475Y-101135839D02*
X142137237Y-101088220D01*
X142137237Y-101088220D02*
X142041999Y-100992982D01*
X142041999Y-100992982D02*
X141899142Y-100850124D01*
X141899142Y-100850124D02*
X141803904Y-100802505D01*
X141803904Y-100802505D02*
X141708666Y-100802505D01*
X141756285Y-101040601D02*
X141661047Y-100992982D01*
X141661047Y-100992982D02*
X141565809Y-100897743D01*
X141565809Y-100897743D02*
X141518190Y-100707267D01*
X141518190Y-100707267D02*
X141518190Y-100373934D01*
X141518190Y-100373934D02*
X141565809Y-100183458D01*
X141565809Y-100183458D02*
X141661047Y-100088220D01*
X141661047Y-100088220D02*
X141756285Y-100040601D01*
X141756285Y-100040601D02*
X141946761Y-100040601D01*
X141946761Y-100040601D02*
X142041999Y-100088220D01*
X142041999Y-100088220D02*
X142137237Y-100183458D01*
X142137237Y-100183458D02*
X142184856Y-100373934D01*
X142184856Y-100373934D02*
X142184856Y-100707267D01*
X142184856Y-100707267D02*
X142137237Y-100897743D01*
X142137237Y-100897743D02*
X142041999Y-100992982D01*
X142041999Y-100992982D02*
X141946761Y-101040601D01*
X141946761Y-101040601D02*
X141756285Y-101040601D01*
X143137237Y-101040601D02*
X142565809Y-101040601D01*
X142851523Y-101040601D02*
X142851523Y-100040601D01*
X142851523Y-100040601D02*
X142756285Y-100183458D01*
X142756285Y-100183458D02*
X142661047Y-100278696D01*
X142661047Y-100278696D02*
X142565809Y-100326315D01*
X134716666Y-99754819D02*
X134716666Y-100469104D01*
X134716666Y-100469104D02*
X134669047Y-100611961D01*
X134669047Y-100611961D02*
X134573809Y-100707200D01*
X134573809Y-100707200D02*
X134430952Y-100754819D01*
X134430952Y-100754819D02*
X134335714Y-100754819D01*
X135716666Y-100754819D02*
X135145238Y-100754819D01*
X135430952Y-100754819D02*
X135430952Y-99754819D01*
X135430952Y-99754819D02*
X135335714Y-99897676D01*
X135335714Y-99897676D02*
X135240476Y-99992914D01*
X135240476Y-99992914D02*
X135145238Y-100040533D01*
X136282050Y-99197889D02*
X136282050Y-98797889D01*
X136982050Y-98997889D02*
X136282050Y-98997889D01*
X136982050Y-98564556D02*
X136282050Y-98564556D01*
X136282050Y-98564556D02*
X136282050Y-98297889D01*
X136282050Y-98297889D02*
X136315383Y-98231223D01*
X136315383Y-98231223D02*
X136348717Y-98197889D01*
X136348717Y-98197889D02*
X136415383Y-98164556D01*
X136415383Y-98164556D02*
X136515383Y-98164556D01*
X136515383Y-98164556D02*
X136582050Y-98197889D01*
X136582050Y-98197889D02*
X136615383Y-98231223D01*
X136615383Y-98231223D02*
X136648717Y-98297889D01*
X136648717Y-98297889D02*
X136648717Y-98564556D01*
X136982050Y-97497889D02*
X136982050Y-97897889D01*
X136982050Y-97697889D02*
X136282050Y-97697889D01*
X136282050Y-97697889D02*
X136382050Y-97764556D01*
X136382050Y-97764556D02*
X136448717Y-97831223D01*
X136448717Y-97831223D02*
X136482050Y-97897889D01*
X153828464Y-102906548D02*
X153828464Y-102206548D01*
X153828464Y-102206548D02*
X153995131Y-102206548D01*
X153995131Y-102206548D02*
X154095131Y-102239881D01*
X154095131Y-102239881D02*
X154161798Y-102306548D01*
X154161798Y-102306548D02*
X154195131Y-102373215D01*
X154195131Y-102373215D02*
X154228464Y-102506548D01*
X154228464Y-102506548D02*
X154228464Y-102606548D01*
X154228464Y-102606548D02*
X154195131Y-102739881D01*
X154195131Y-102739881D02*
X154161798Y-102806548D01*
X154161798Y-102806548D02*
X154095131Y-102873215D01*
X154095131Y-102873215D02*
X153995131Y-102906548D01*
X153995131Y-102906548D02*
X153828464Y-102906548D01*
X154461798Y-102206548D02*
X154895131Y-102206548D01*
X154895131Y-102206548D02*
X154661798Y-102473215D01*
X154661798Y-102473215D02*
X154761798Y-102473215D01*
X154761798Y-102473215D02*
X154828464Y-102506548D01*
X154828464Y-102506548D02*
X154861798Y-102539881D01*
X154861798Y-102539881D02*
X154895131Y-102606548D01*
X154895131Y-102606548D02*
X154895131Y-102773215D01*
X154895131Y-102773215D02*
X154861798Y-102839881D01*
X154861798Y-102839881D02*
X154828464Y-102873215D01*
X154828464Y-102873215D02*
X154761798Y-102906548D01*
X154761798Y-102906548D02*
X154561798Y-102906548D01*
X154561798Y-102906548D02*
X154495131Y-102873215D01*
X154495131Y-102873215D02*
X154461798Y-102839881D01*
X138131449Y-101689263D02*
X137798116Y-101689263D01*
X137798116Y-102213073D02*
X137798116Y-101213073D01*
X137798116Y-101213073D02*
X138274306Y-101213073D01*
X139179068Y-102213073D02*
X138607640Y-102213073D01*
X138893354Y-102213073D02*
X138893354Y-101213073D01*
X138893354Y-101213073D02*
X138798116Y-101355930D01*
X138798116Y-101355930D02*
X138702878Y-101451168D01*
X138702878Y-101451168D02*
X138607640Y-101498787D01*
X137696488Y-108147898D02*
X137363155Y-107671707D01*
X137125060Y-108147898D02*
X137125060Y-107147898D01*
X137125060Y-107147898D02*
X137506012Y-107147898D01*
X137506012Y-107147898D02*
X137601250Y-107195517D01*
X137601250Y-107195517D02*
X137648869Y-107243136D01*
X137648869Y-107243136D02*
X137696488Y-107338374D01*
X137696488Y-107338374D02*
X137696488Y-107481231D01*
X137696488Y-107481231D02*
X137648869Y-107576469D01*
X137648869Y-107576469D02*
X137601250Y-107624088D01*
X137601250Y-107624088D02*
X137506012Y-107671707D01*
X137506012Y-107671707D02*
X137125060Y-107671707D01*
X138648869Y-108147898D02*
X138077441Y-108147898D01*
X138363155Y-108147898D02*
X138363155Y-107147898D01*
X138363155Y-107147898D02*
X138267917Y-107290755D01*
X138267917Y-107290755D02*
X138172679Y-107385993D01*
X138172679Y-107385993D02*
X138077441Y-107433612D01*
X160441033Y-99343911D02*
X160441033Y-98943911D01*
X161141033Y-99143911D02*
X160441033Y-99143911D01*
X161141033Y-98710578D02*
X160441033Y-98710578D01*
X160441033Y-98710578D02*
X160441033Y-98443911D01*
X160441033Y-98443911D02*
X160474366Y-98377245D01*
X160474366Y-98377245D02*
X160507700Y-98343911D01*
X160507700Y-98343911D02*
X160574366Y-98310578D01*
X160574366Y-98310578D02*
X160674366Y-98310578D01*
X160674366Y-98310578D02*
X160741033Y-98343911D01*
X160741033Y-98343911D02*
X160774366Y-98377245D01*
X160774366Y-98377245D02*
X160807700Y-98443911D01*
X160807700Y-98443911D02*
X160807700Y-98710578D01*
X160441033Y-98077245D02*
X160441033Y-97643911D01*
X160441033Y-97643911D02*
X160707700Y-97877245D01*
X160707700Y-97877245D02*
X160707700Y-97777245D01*
X160707700Y-97777245D02*
X160741033Y-97710578D01*
X160741033Y-97710578D02*
X160774366Y-97677245D01*
X160774366Y-97677245D02*
X160841033Y-97643911D01*
X160841033Y-97643911D02*
X161007700Y-97643911D01*
X161007700Y-97643911D02*
X161074366Y-97677245D01*
X161074366Y-97677245D02*
X161107700Y-97710578D01*
X161107700Y-97710578D02*
X161141033Y-97777245D01*
X161141033Y-97777245D02*
X161141033Y-97977245D01*
X161141033Y-97977245D02*
X161107700Y-98043911D01*
X161107700Y-98043911D02*
X161074366Y-98077245D01*
X145844518Y-108054431D02*
X145811185Y-108087765D01*
X145811185Y-108087765D02*
X145711185Y-108121098D01*
X145711185Y-108121098D02*
X145644518Y-108121098D01*
X145644518Y-108121098D02*
X145544518Y-108087765D01*
X145544518Y-108087765D02*
X145477852Y-108021098D01*
X145477852Y-108021098D02*
X145444518Y-107954431D01*
X145444518Y-107954431D02*
X145411185Y-107821098D01*
X145411185Y-107821098D02*
X145411185Y-107721098D01*
X145411185Y-107721098D02*
X145444518Y-107587765D01*
X145444518Y-107587765D02*
X145477852Y-107521098D01*
X145477852Y-107521098D02*
X145544518Y-107454431D01*
X145544518Y-107454431D02*
X145644518Y-107421098D01*
X145644518Y-107421098D02*
X145711185Y-107421098D01*
X145711185Y-107421098D02*
X145811185Y-107454431D01*
X145811185Y-107454431D02*
X145844518Y-107487765D01*
X146511185Y-108121098D02*
X146111185Y-108121098D01*
X146311185Y-108121098D02*
X146311185Y-107421098D01*
X146311185Y-107421098D02*
X146244518Y-107521098D01*
X146244518Y-107521098D02*
X146177852Y-107587765D01*
X146177852Y-107587765D02*
X146111185Y-107621098D01*
X147383333Y-107816737D02*
X147350000Y-107850071D01*
X147350000Y-107850071D02*
X147250000Y-107883404D01*
X147250000Y-107883404D02*
X147183333Y-107883404D01*
X147183333Y-107883404D02*
X147083333Y-107850071D01*
X147083333Y-107850071D02*
X147016667Y-107783404D01*
X147016667Y-107783404D02*
X146983333Y-107716737D01*
X146983333Y-107716737D02*
X146950000Y-107583404D01*
X146950000Y-107583404D02*
X146950000Y-107483404D01*
X146950000Y-107483404D02*
X146983333Y-107350071D01*
X146983333Y-107350071D02*
X147016667Y-107283404D01*
X147016667Y-107283404D02*
X147083333Y-107216737D01*
X147083333Y-107216737D02*
X147183333Y-107183404D01*
X147183333Y-107183404D02*
X147250000Y-107183404D01*
X147250000Y-107183404D02*
X147350000Y-107216737D01*
X147350000Y-107216737D02*
X147383333Y-107250071D01*
X147650000Y-107250071D02*
X147683333Y-107216737D01*
X147683333Y-107216737D02*
X147750000Y-107183404D01*
X147750000Y-107183404D02*
X147916667Y-107183404D01*
X147916667Y-107183404D02*
X147983333Y-107216737D01*
X147983333Y-107216737D02*
X148016667Y-107250071D01*
X148016667Y-107250071D02*
X148050000Y-107316737D01*
X148050000Y-107316737D02*
X148050000Y-107383404D01*
X148050000Y-107383404D02*
X148016667Y-107483404D01*
X148016667Y-107483404D02*
X147616667Y-107883404D01*
X147616667Y-107883404D02*
X148050000Y-107883404D01*
X142071721Y-108936324D02*
X142071721Y-107936324D01*
X142071721Y-107936324D02*
X142309816Y-107936324D01*
X142309816Y-107936324D02*
X142452673Y-107983943D01*
X142452673Y-107983943D02*
X142547911Y-108079181D01*
X142547911Y-108079181D02*
X142595530Y-108174419D01*
X142595530Y-108174419D02*
X142643149Y-108364895D01*
X142643149Y-108364895D02*
X142643149Y-108507752D01*
X142643149Y-108507752D02*
X142595530Y-108698228D01*
X142595530Y-108698228D02*
X142547911Y-108793466D01*
X142547911Y-108793466D02*
X142452673Y-108888705D01*
X142452673Y-108888705D02*
X142309816Y-108936324D01*
X142309816Y-108936324D02*
X142071721Y-108936324D01*
X143595530Y-108936324D02*
X143024102Y-108936324D01*
X143309816Y-108936324D02*
X143309816Y-107936324D01*
X143309816Y-107936324D02*
X143214578Y-108079181D01*
X143214578Y-108079181D02*
X143119340Y-108174419D01*
X143119340Y-108174419D02*
X143024102Y-108222038D01*
X145211916Y-102236546D02*
X144211916Y-102236546D01*
X144211916Y-102236546D02*
X144211916Y-101998451D01*
X144211916Y-101998451D02*
X144259535Y-101855594D01*
X144259535Y-101855594D02*
X144354773Y-101760356D01*
X144354773Y-101760356D02*
X144450011Y-101712737D01*
X144450011Y-101712737D02*
X144640487Y-101665118D01*
X144640487Y-101665118D02*
X144783344Y-101665118D01*
X144783344Y-101665118D02*
X144973820Y-101712737D01*
X144973820Y-101712737D02*
X145069058Y-101760356D01*
X145069058Y-101760356D02*
X145164297Y-101855594D01*
X145164297Y-101855594D02*
X145211916Y-101998451D01*
X145211916Y-101998451D02*
X145211916Y-102236546D01*
X144307154Y-101284165D02*
X144259535Y-101236546D01*
X144259535Y-101236546D02*
X144211916Y-101141308D01*
X144211916Y-101141308D02*
X144211916Y-100903213D01*
X144211916Y-100903213D02*
X144259535Y-100807975D01*
X144259535Y-100807975D02*
X144307154Y-100760356D01*
X144307154Y-100760356D02*
X144402392Y-100712737D01*
X144402392Y-100712737D02*
X144497630Y-100712737D01*
X144497630Y-100712737D02*
X144640487Y-100760356D01*
X144640487Y-100760356D02*
X145211916Y-101331784D01*
X145211916Y-101331784D02*
X145211916Y-100712737D01*
X153634371Y-107637212D02*
X153601038Y-107670546D01*
X153601038Y-107670546D02*
X153501038Y-107703879D01*
X153501038Y-107703879D02*
X153434371Y-107703879D01*
X153434371Y-107703879D02*
X153334371Y-107670546D01*
X153334371Y-107670546D02*
X153267705Y-107603879D01*
X153267705Y-107603879D02*
X153234371Y-107537212D01*
X153234371Y-107537212D02*
X153201038Y-107403879D01*
X153201038Y-107403879D02*
X153201038Y-107303879D01*
X153201038Y-107303879D02*
X153234371Y-107170546D01*
X153234371Y-107170546D02*
X153267705Y-107103879D01*
X153267705Y-107103879D02*
X153334371Y-107037212D01*
X153334371Y-107037212D02*
X153434371Y-107003879D01*
X153434371Y-107003879D02*
X153501038Y-107003879D01*
X153501038Y-107003879D02*
X153601038Y-107037212D01*
X153601038Y-107037212D02*
X153634371Y-107070546D01*
X154234371Y-107237212D02*
X154234371Y-107703879D01*
X154067705Y-106970546D02*
X153901038Y-107470546D01*
X153901038Y-107470546D02*
X154334371Y-107470546D01*
X146454954Y-99246563D02*
X146454954Y-98846563D01*
X147154954Y-99046563D02*
X146454954Y-99046563D01*
X147154954Y-98613230D02*
X146454954Y-98613230D01*
X146454954Y-98613230D02*
X146454954Y-98346563D01*
X146454954Y-98346563D02*
X146488287Y-98279897D01*
X146488287Y-98279897D02*
X146521621Y-98246563D01*
X146521621Y-98246563D02*
X146588287Y-98213230D01*
X146588287Y-98213230D02*
X146688287Y-98213230D01*
X146688287Y-98213230D02*
X146754954Y-98246563D01*
X146754954Y-98246563D02*
X146788287Y-98279897D01*
X146788287Y-98279897D02*
X146821621Y-98346563D01*
X146821621Y-98346563D02*
X146821621Y-98613230D01*
X146521621Y-97946563D02*
X146488287Y-97913230D01*
X146488287Y-97913230D02*
X146454954Y-97846563D01*
X146454954Y-97846563D02*
X146454954Y-97679897D01*
X146454954Y-97679897D02*
X146488287Y-97613230D01*
X146488287Y-97613230D02*
X146521621Y-97579897D01*
X146521621Y-97579897D02*
X146588287Y-97546563D01*
X146588287Y-97546563D02*
X146654954Y-97546563D01*
X146654954Y-97546563D02*
X146754954Y-97579897D01*
X146754954Y-97579897D02*
X147154954Y-97979897D01*
X147154954Y-97979897D02*
X147154954Y-97546563D01*
X155914946Y-107616860D02*
X155881613Y-107650194D01*
X155881613Y-107650194D02*
X155781613Y-107683527D01*
X155781613Y-107683527D02*
X155714946Y-107683527D01*
X155714946Y-107683527D02*
X155614946Y-107650194D01*
X155614946Y-107650194D02*
X155548280Y-107583527D01*
X155548280Y-107583527D02*
X155514946Y-107516860D01*
X155514946Y-107516860D02*
X155481613Y-107383527D01*
X155481613Y-107383527D02*
X155481613Y-107283527D01*
X155481613Y-107283527D02*
X155514946Y-107150194D01*
X155514946Y-107150194D02*
X155548280Y-107083527D01*
X155548280Y-107083527D02*
X155614946Y-107016860D01*
X155614946Y-107016860D02*
X155714946Y-106983527D01*
X155714946Y-106983527D02*
X155781613Y-106983527D01*
X155781613Y-106983527D02*
X155881613Y-107016860D01*
X155881613Y-107016860D02*
X155914946Y-107050194D01*
X156548280Y-106983527D02*
X156214946Y-106983527D01*
X156214946Y-106983527D02*
X156181613Y-107316860D01*
X156181613Y-107316860D02*
X156214946Y-107283527D01*
X156214946Y-107283527D02*
X156281613Y-107250194D01*
X156281613Y-107250194D02*
X156448280Y-107250194D01*
X156448280Y-107250194D02*
X156514946Y-107283527D01*
X156514946Y-107283527D02*
X156548280Y-107316860D01*
X156548280Y-107316860D02*
X156581613Y-107383527D01*
X156581613Y-107383527D02*
X156581613Y-107550194D01*
X156581613Y-107550194D02*
X156548280Y-107616860D01*
X156548280Y-107616860D02*
X156514946Y-107650194D01*
X156514946Y-107650194D02*
X156448280Y-107683527D01*
X156448280Y-107683527D02*
X156281613Y-107683527D01*
X156281613Y-107683527D02*
X156214946Y-107650194D01*
X156214946Y-107650194D02*
X156181613Y-107616860D01*
X161929102Y-100691033D02*
X161929102Y-101191033D01*
X161929102Y-101191033D02*
X161895769Y-101291033D01*
X161895769Y-101291033D02*
X161829102Y-101357700D01*
X161829102Y-101357700D02*
X161729102Y-101391033D01*
X161729102Y-101391033D02*
X161662436Y-101391033D01*
X162229102Y-100757700D02*
X162262435Y-100724366D01*
X162262435Y-100724366D02*
X162329102Y-100691033D01*
X162329102Y-100691033D02*
X162495769Y-100691033D01*
X162495769Y-100691033D02*
X162562435Y-100724366D01*
X162562435Y-100724366D02*
X162595769Y-100757700D01*
X162595769Y-100757700D02*
X162629102Y-100824366D01*
X162629102Y-100824366D02*
X162629102Y-100891033D01*
X162629102Y-100891033D02*
X162595769Y-100991033D01*
X162595769Y-100991033D02*
X162195769Y-101391033D01*
X162195769Y-101391033D02*
X162629102Y-101391033D01*
X159908420Y-101040387D02*
X159575087Y-101273720D01*
X159908420Y-101440387D02*
X159208420Y-101440387D01*
X159208420Y-101440387D02*
X159208420Y-101173720D01*
X159208420Y-101173720D02*
X159241753Y-101107054D01*
X159241753Y-101107054D02*
X159275087Y-101073720D01*
X159275087Y-101073720D02*
X159341753Y-101040387D01*
X159341753Y-101040387D02*
X159441753Y-101040387D01*
X159441753Y-101040387D02*
X159508420Y-101073720D01*
X159508420Y-101073720D02*
X159541753Y-101107054D01*
X159541753Y-101107054D02*
X159575087Y-101173720D01*
X159575087Y-101173720D02*
X159575087Y-101440387D01*
X159275087Y-100773720D02*
X159241753Y-100740387D01*
X159241753Y-100740387D02*
X159208420Y-100673720D01*
X159208420Y-100673720D02*
X159208420Y-100507054D01*
X159208420Y-100507054D02*
X159241753Y-100440387D01*
X159241753Y-100440387D02*
X159275087Y-100407054D01*
X159275087Y-100407054D02*
X159341753Y-100373720D01*
X159341753Y-100373720D02*
X159408420Y-100373720D01*
X159408420Y-100373720D02*
X159508420Y-100407054D01*
X159508420Y-100407054D02*
X159908420Y-100807054D01*
X159908420Y-100807054D02*
X159908420Y-100373720D01*
X151848116Y-107616860D02*
X151814783Y-107650194D01*
X151814783Y-107650194D02*
X151714783Y-107683527D01*
X151714783Y-107683527D02*
X151648116Y-107683527D01*
X151648116Y-107683527D02*
X151548116Y-107650194D01*
X151548116Y-107650194D02*
X151481450Y-107583527D01*
X151481450Y-107583527D02*
X151448116Y-107516860D01*
X151448116Y-107516860D02*
X151414783Y-107383527D01*
X151414783Y-107383527D02*
X151414783Y-107283527D01*
X151414783Y-107283527D02*
X151448116Y-107150194D01*
X151448116Y-107150194D02*
X151481450Y-107083527D01*
X151481450Y-107083527D02*
X151548116Y-107016860D01*
X151548116Y-107016860D02*
X151648116Y-106983527D01*
X151648116Y-106983527D02*
X151714783Y-106983527D01*
X151714783Y-106983527D02*
X151814783Y-107016860D01*
X151814783Y-107016860D02*
X151848116Y-107050194D01*
X152081450Y-106983527D02*
X152514783Y-106983527D01*
X152514783Y-106983527D02*
X152281450Y-107250194D01*
X152281450Y-107250194D02*
X152381450Y-107250194D01*
X152381450Y-107250194D02*
X152448116Y-107283527D01*
X152448116Y-107283527D02*
X152481450Y-107316860D01*
X152481450Y-107316860D02*
X152514783Y-107383527D01*
X152514783Y-107383527D02*
X152514783Y-107550194D01*
X152514783Y-107550194D02*
X152481450Y-107616860D01*
X152481450Y-107616860D02*
X152448116Y-107650194D01*
X152448116Y-107650194D02*
X152381450Y-107683527D01*
X152381450Y-107683527D02*
X152181450Y-107683527D01*
X152181450Y-107683527D02*
X152114783Y-107650194D01*
X152114783Y-107650194D02*
X152081450Y-107616860D01*
%TO.C,U1*%
D13*
X148793538Y-104257494D02*
X151013538Y-104257494D01*
X150602790Y-106477494D02*
X148793538Y-106477494D01*
X150893538Y-106487494D02*
X151033538Y-106677494D01*
X150753538Y-106677494D01*
X150893538Y-106487494D01*
G36*
X151033538Y-106677494D02*
G01*
X150753538Y-106677494D01*
X150893538Y-106487494D01*
X151033538Y-106677494D01*
G37*
%TO.C,Q1*%
X140838142Y-102607494D02*
X141838142Y-102607494D01*
X140838142Y-104127494D02*
X140838142Y-102607494D01*
X140888142Y-104127494D02*
X140838142Y-104127494D01*
X142788142Y-104127494D02*
X142008142Y-104127494D01*
X142958142Y-102607494D02*
X143958142Y-102607494D01*
X143958142Y-102607494D02*
X143958142Y-104127494D01*
X143958142Y-104127494D02*
X143908142Y-104127494D01*
X142018142Y-104667494D02*
X142348142Y-104427494D01*
X142348142Y-104907494D01*
X142018142Y-104667494D01*
G36*
X142348142Y-104907494D02*
G01*
X142018142Y-104667494D01*
X142348142Y-104427494D01*
X142348142Y-104907494D01*
G37*
%TO.C,J1*%
X127554783Y-101460332D02*
X127554783Y-107580332D01*
X127554783Y-104020332D02*
X131914783Y-104020332D01*
X127554783Y-107580332D02*
X135374783Y-107580332D01*
X129814783Y-102720332D02*
X127554783Y-102720332D01*
X129814783Y-103220332D02*
X127554783Y-103220332D01*
X131914783Y-104020332D02*
X131914783Y-105020332D01*
X131914783Y-105020332D02*
X127554783Y-105020332D01*
X133774783Y-101460332D02*
X133774783Y-102380332D01*
X133774783Y-102380332D02*
X135374783Y-102380332D01*
X133774783Y-102660332D02*
X133774783Y-102380332D01*
X133774783Y-102660332D02*
X134989783Y-102660332D01*
X133774783Y-106660332D02*
X133774783Y-106380332D01*
X133774783Y-107580332D02*
X133774783Y-106660332D01*
X135374783Y-101460332D02*
X127554783Y-101460332D01*
X135374783Y-102380332D02*
X135374783Y-101460332D01*
X135374783Y-106660332D02*
X133774783Y-106660332D01*
X135374783Y-107580332D02*
X135374783Y-106660332D01*
X129814783Y-102220332D02*
X131414783Y-102220332D01*
X131414783Y-103220332D01*
X129814783Y-103220332D01*
X129814783Y-102220332D01*
X129814783Y-105820332D02*
X131414783Y-105820332D01*
X131414783Y-106820332D01*
X129814783Y-106820332D01*
X129814783Y-105820332D01*
%TO.C,TP1*%
X139437487Y-98367494D02*
G75*
G02*
X137537487Y-98367494I-950000J0D01*
G01*
X137537487Y-98367494D02*
G75*
G02*
X139437487Y-98367494I950000J0D01*
G01*
%TO.C,D3*%
X152860131Y-100157105D02*
X152860131Y-101627105D01*
X152860131Y-101627105D02*
X155145131Y-101627105D01*
X155145131Y-100157105D02*
X152860131Y-100157105D01*
%TO.C,F1*%
X137570405Y-102601947D02*
X138774533Y-102601947D01*
X137570405Y-104421947D02*
X138774533Y-104421947D01*
%TO.C,R1*%
X137575959Y-105172719D02*
X138030087Y-105172719D01*
X137575959Y-106642719D02*
X138030087Y-106642719D01*
%TO.C,TP3*%
X159937487Y-98367494D02*
G75*
G02*
X158037487Y-98367494I-950000J0D01*
G01*
X158037487Y-98367494D02*
G75*
G02*
X159937487Y-98367494I950000J0D01*
G01*
%TO.C,C1*%
X145229783Y-105106242D02*
X145229783Y-105628746D01*
X146699783Y-105106242D02*
X146699783Y-105628746D01*
%TO.C,C2*%
X147261147Y-105226914D02*
X147261147Y-105508074D01*
X148281147Y-105226914D02*
X148281147Y-105508074D01*
%TO.C,D1*%
X144522189Y-105576505D02*
X140662189Y-105576505D01*
X144522189Y-107576505D02*
X140662189Y-107576505D01*
X144522189Y-107576505D02*
X144522189Y-105576505D01*
%TO.C,D2*%
X145454783Y-100108254D02*
X145454783Y-103408254D01*
X145454783Y-100108254D02*
X150964783Y-100108254D01*
X145454783Y-103408254D02*
X150964783Y-103408254D01*
%TO.C,C4*%
X152954886Y-105330563D02*
X152954886Y-104808059D01*
X154424886Y-105330563D02*
X154424886Y-104808059D01*
%TO.C,TP2*%
X149437487Y-98367494D02*
G75*
G02*
X147537487Y-98367494I-950000J0D01*
G01*
X147537487Y-98367494D02*
G75*
G02*
X149437487Y-98367494I950000J0D01*
G01*
%TO.C,C5*%
X155296613Y-105315607D02*
X155296613Y-104793103D01*
X156766613Y-105315607D02*
X156766613Y-104793103D01*
%TO.C,J2*%
X157547112Y-102300773D02*
X158817112Y-102300773D01*
X157547112Y-103570773D02*
X157547112Y-102300773D01*
X159894470Y-105680773D02*
X160207112Y-105680773D01*
X159894470Y-106540773D02*
X160207112Y-106540773D01*
X159977112Y-103140773D02*
X160207112Y-103140773D01*
X159977112Y-104000773D02*
X160207112Y-104000773D01*
X160207112Y-104840773D02*
X162967112Y-104840773D01*
X162967112Y-105680773D02*
X168967112Y-105680773D01*
X168967112Y-105680773D02*
X168967112Y-106540773D01*
X168967112Y-106540773D02*
X162967112Y-106540773D01*
X160207112Y-102190773D02*
X162967112Y-102190773D01*
X162967112Y-107490773D01*
X160207112Y-107490773D01*
X160207112Y-102190773D01*
X162967112Y-103140773D02*
X168967112Y-103140773D01*
X168967112Y-104000773D01*
X162967112Y-104000773D01*
X162967112Y-103140773D01*
G36*
X162967112Y-103140773D02*
G01*
X168967112Y-103140773D01*
X168967112Y-104000773D01*
X162967112Y-104000773D01*
X162967112Y-103140773D01*
G37*
%TO.C,R2*%
X157663609Y-100387212D02*
X157189093Y-100387212D01*
X157663609Y-101432212D02*
X157189093Y-101432212D01*
%TO.C,C3*%
X151454783Y-105350747D02*
X151454783Y-105069587D01*
X152474783Y-105350747D02*
X152474783Y-105069587D01*
%TD*%
M02*
