%TF.GenerationSoftware,KiCad,Pcbnew,10.0.3*%
%TF.CreationDate,2026-06-12T02:27:38+05:00*%
%TF.ProjectId,Battery_Powered_3.3V_Regulator,42617474-6572-4795-9f50-6f7765726564,rev?*%
%TF.SameCoordinates,Original*%
%TF.FileFunction,Copper,L1,Top*%
%TF.FilePolarity,Positive*%
%FSLAX46Y46*%
G04 Gerber Fmt 4.6, Leading zero omitted, Abs format (unit mm)*
G04 Created by KiCad (PCBNEW 10.0.3) date 2026-06-12 02:27:38*
%MOMM*%
%LPD*%
G01*
G04 APERTURE LIST*
G04 Aperture macros list*
%AMRoundRect*
0 Rectangle with rounded corners*
0 $1 Rounding radius*
0 $2 $3 $4 $5 $6 $7 $8 $9 X,Y pos of 4 corners*
0 Add a 4 corners polygon primitive as box body*
4,1,4,$2,$3,$4,$5,$6,$7,$8,$9,$2,$3,0*
0 Add four circle primitives for the rounded corners*
1,1,$1+$1,$2,$3*
1,1,$1+$1,$4,$5*
1,1,$1+$1,$6,$7*
1,1,$1+$1,$8,$9*
0 Add four rect primitives between the rounded corners*
20,1,$1+$1,$2,$3,$4,$5,0*
20,1,$1+$1,$4,$5,$6,$7,0*
20,1,$1+$1,$6,$7,$8,$9,0*
20,1,$1+$1,$8,$9,$2,$3,0*%
G04 Aperture macros list end*
%TA.AperFunction,SMDPad,CuDef*%
%ADD10RoundRect,0.093750X0.093750X0.106250X-0.093750X0.106250X-0.093750X-0.106250X0.093750X-0.106250X0*%
%TD*%
%TA.AperFunction,HeatsinkPad*%
%ADD11R,1.000000X1.600000*%
%TD*%
%TA.AperFunction,SMDPad,CuDef*%
%ADD12RoundRect,0.150000X0.150000X-0.587500X0.150000X0.587500X-0.150000X0.587500X-0.150000X-0.587500X0*%
%TD*%
%TA.AperFunction,ComponentPad*%
%ADD13RoundRect,0.250000X-0.625000X0.350000X-0.625000X-0.350000X0.625000X-0.350000X0.625000X0.350000X0*%
%TD*%
%TA.AperFunction,ComponentPad*%
%ADD14O,1.750000X1.200000*%
%TD*%
%TA.AperFunction,SMDPad,CuDef*%
%ADD15C,1.500000*%
%TD*%
%TA.AperFunction,SMDPad,CuDef*%
%ADD16RoundRect,0.218750X-0.218750X-0.256250X0.218750X-0.256250X0.218750X0.256250X-0.218750X0.256250X0*%
%TD*%
%TA.AperFunction,SMDPad,CuDef*%
%ADD17RoundRect,0.250000X-0.375000X-0.625000X0.375000X-0.625000X0.375000X0.625000X-0.375000X0.625000X0*%
%TD*%
%TA.AperFunction,SMDPad,CuDef*%
%ADD18RoundRect,0.250000X-0.262500X-0.450000X0.262500X-0.450000X0.262500X0.450000X-0.262500X0.450000X0*%
%TD*%
%TA.AperFunction,SMDPad,CuDef*%
%ADD19RoundRect,0.250000X-0.475000X0.250000X-0.475000X-0.250000X0.475000X-0.250000X0.475000X0.250000X0*%
%TD*%
%TA.AperFunction,SMDPad,CuDef*%
%ADD20RoundRect,0.225000X-0.250000X0.225000X-0.250000X-0.225000X0.250000X-0.225000X0.250000X0.225000X0*%
%TD*%
%TA.AperFunction,SMDPad,CuDef*%
%ADD21RoundRect,0.250000X0.300000X0.300000X-0.300000X0.300000X-0.300000X-0.300000X0.300000X-0.300000X0*%
%TD*%
%TA.AperFunction,SMDPad,CuDef*%
%ADD22RoundRect,0.250000X-1.000000X-0.650000X1.000000X-0.650000X1.000000X0.650000X-1.000000X0.650000X0*%
%TD*%
%TA.AperFunction,SMDPad,CuDef*%
%ADD23RoundRect,0.250000X0.475000X-0.250000X0.475000X0.250000X-0.475000X0.250000X-0.475000X-0.250000X0*%
%TD*%
%TA.AperFunction,ComponentPad*%
%ADD24R,1.700000X1.700000*%
%TD*%
%TA.AperFunction,ComponentPad*%
%ADD25C,1.700000*%
%TD*%
%TA.AperFunction,SMDPad,CuDef*%
%ADD26RoundRect,0.200000X0.200000X0.275000X-0.200000X0.275000X-0.200000X-0.275000X0.200000X-0.275000X0*%
%TD*%
%TA.AperFunction,SMDPad,CuDef*%
%ADD27RoundRect,0.225000X0.250000X-0.225000X0.250000X0.225000X-0.250000X0.225000X-0.250000X-0.225000X0*%
%TD*%
%TA.AperFunction,ViaPad*%
%ADD28C,0.400000*%
%TD*%
%TA.AperFunction,ViaPad*%
%ADD29C,0.800000*%
%TD*%
%TA.AperFunction,Conductor*%
%ADD30C,0.200000*%
%TD*%
%TA.AperFunction,Conductor*%
%ADD31C,1.000000*%
%TD*%
G04 APERTURE END LIST*
D10*
%TO.P,U1,1,OUT_1*%
%TO.N,Net-(J2-Pin_2)*%
X150791038Y-106017494D03*
%TO.P,U1,2,NC_2*%
%TO.N,unconnected-(U1-NC-Pad2)*%
X150791038Y-105367494D03*
%TO.P,U1,3,GND_3*%
%TO.N,GND*%
X150791038Y-104717494D03*
%TO.P,U1,4,EN_4*%
%TO.N,Net-(D1-K)*%
X149016038Y-104717494D03*
%TO.P,U1,5,NC_5*%
%TO.N,unconnected-(U1-NC-Pad5)*%
X149016038Y-105367494D03*
%TO.P,U1,6,IN_6*%
%TO.N,Net-(D1-K)*%
X149016038Y-106017494D03*
D11*
%TO.P,U1,7,GND_7*%
%TO.N,GND*%
X149903538Y-105367494D03*
%TD*%
D12*
%TO.P,Q1,1,G_1*%
%TO.N,Net-(D1-A)*%
X141448142Y-104304994D03*
%TO.P,Q1,2,S_2*%
%TO.N,Net-(D1-K)*%
X143348142Y-104304994D03*
%TO.P,Q1,3,D_3*%
%TO.N,Net-(Q1-D)*%
X142398142Y-102429994D03*
%TD*%
D13*
%TO.P,J1,1,Pin_1_1*%
%TO.N,Net-(J1-Pin_1)*%
X133914783Y-103520332D03*
D14*
%TO.P,J1,2,Pin_2_2*%
%TO.N,GND*%
X133914783Y-105520332D03*
%TD*%
D15*
%TO.P,TP1,1,1_1*%
%TO.N,Net-(J1-Pin_1)*%
X138487487Y-98367494D03*
%TD*%
D16*
%TO.P,D3,1,K_1*%
%TO.N,GND*%
X153557631Y-100892105D03*
%TO.P,D3,2,A_2*%
%TO.N,Net-(D3-A)*%
X155132631Y-100892105D03*
%TD*%
D17*
%TO.P,F1,1*%
%TO.N,Net-(J1-Pin_1)*%
X136772469Y-103511947D03*
%TO.P,F1,2*%
%TO.N,Net-(Q1-D)*%
X139572469Y-103511947D03*
%TD*%
D18*
%TO.P,R1,1*%
%TO.N,GND*%
X136890523Y-105907719D03*
%TO.P,R1,2*%
%TO.N,Net-(D1-A)*%
X138715523Y-105907719D03*
%TD*%
D15*
%TO.P,TP3,1,1_1*%
%TO.N,Net-(J2-Pin_2)*%
X158987487Y-98367494D03*
%TD*%
D19*
%TO.P,C1,1*%
%TO.N,Net-(D1-K)*%
X145964783Y-104417494D03*
%TO.P,C1,2*%
%TO.N,GND*%
X145964783Y-106317494D03*
%TD*%
D20*
%TO.P,C2,1*%
%TO.N,Net-(D1-K)*%
X147771147Y-104592494D03*
%TO.P,C2,2*%
%TO.N,GND*%
X147771147Y-106142494D03*
%TD*%
D21*
%TO.P,D1,1,K_1*%
%TO.N,Net-(D1-K)*%
X143712189Y-106576505D03*
%TO.P,D1,2,A_2*%
%TO.N,Net-(D1-A)*%
X140912189Y-106576505D03*
%TD*%
D22*
%TO.P,D2,1,A1_1*%
%TO.N,Net-(D1-K)*%
X146964783Y-101758254D03*
%TO.P,D2,2,A2_2*%
%TO.N,GND*%
X150964783Y-101758254D03*
%TD*%
D23*
%TO.P,C4,1*%
%TO.N,Net-(J2-Pin_2)*%
X153689886Y-106019311D03*
%TO.P,C4,2*%
%TO.N,GND*%
X153689886Y-104119311D03*
%TD*%
D15*
%TO.P,TP2,1,1_1*%
%TO.N,GND*%
X148487487Y-98367494D03*
%TD*%
D23*
%TO.P,C5,1*%
%TO.N,Net-(J2-Pin_2)*%
X156031613Y-106004355D03*
%TO.P,C5,2*%
%TO.N,GND*%
X156031613Y-104104355D03*
%TD*%
D24*
%TO.P,J2,1,Pin_1_1*%
%TO.N,GND*%
X158817112Y-103570773D03*
D25*
%TO.P,J2,2,Pin_2_2*%
%TO.N,Net-(J2-Pin_2)*%
X158817112Y-106110773D03*
%TD*%
D26*
%TO.P,R2,1*%
%TO.N,Net-(J2-Pin_2)*%
X158251351Y-100909712D03*
%TO.P,R2,2*%
%TO.N,Net-(D3-A)*%
X156601351Y-100909712D03*
%TD*%
D27*
%TO.P,C3,1*%
%TO.N,Net-(J2-Pin_2)*%
X151964783Y-105985167D03*
%TO.P,C3,2*%
%TO.N,GND*%
X151964783Y-104435167D03*
%TD*%
D28*
%TO.N,GND*%
X149600000Y-104350000D03*
D29*
X151500000Y-109000000D03*
D28*
X149550000Y-107250000D03*
D29*
X143500000Y-97500000D03*
X160500000Y-103000000D03*
X150000000Y-109000000D03*
X142000000Y-99000000D03*
X136500000Y-109000000D03*
X129000000Y-105500000D03*
D28*
X150250000Y-107950000D03*
D29*
X135000000Y-110400000D03*
X151500000Y-110400000D03*
X150500000Y-99000000D03*
X145500000Y-109000000D03*
X133500000Y-108500000D03*
X133500000Y-110400000D03*
X153000000Y-102500000D03*
X152000000Y-99000000D03*
X147000000Y-110400000D03*
X147000000Y-109000000D03*
D28*
X149550000Y-107950000D03*
D29*
X132000000Y-105500000D03*
D28*
X149600000Y-104875000D03*
D29*
X136478020Y-110340080D03*
X150500000Y-97500000D03*
X160500000Y-104000000D03*
X150000000Y-103500000D03*
X136500000Y-107500000D03*
X130500000Y-108500000D03*
X148500000Y-109000000D03*
X145000000Y-97500000D03*
X132000000Y-110400000D03*
D28*
X150225000Y-106525000D03*
D29*
X145500000Y-110400000D03*
X134700000Y-107000000D03*
X130500000Y-110400000D03*
X152000000Y-97500000D03*
X129000000Y-107000000D03*
X135500000Y-106000000D03*
X151341708Y-103462821D03*
X162000000Y-103000000D03*
D28*
X149600000Y-105875000D03*
X149903538Y-105367494D03*
D29*
X148500000Y-110400000D03*
X150000000Y-110400000D03*
X153500000Y-97500000D03*
D28*
X150225000Y-105875000D03*
D29*
X133375000Y-107025000D03*
X130500000Y-107000000D03*
D28*
X150225000Y-104350000D03*
X150225000Y-107250000D03*
D29*
X129216704Y-110012944D03*
X130500000Y-105500000D03*
X135000000Y-108500000D03*
X153500000Y-99000000D03*
D28*
X149575000Y-106500000D03*
D29*
X142000000Y-97500000D03*
X162000000Y-104000000D03*
X132000000Y-108500000D03*
X132000000Y-107000000D03*
D28*
X150225000Y-104875000D03*
D29*
X129000000Y-108500000D03*
%TO.N,Net-(J2-Pin_2)*%
X157646727Y-99708254D03*
%TD*%
%TO.N,Net-(D1-K)*%
D30*
X149016038Y-106017494D02*
X148828539Y-106017494D01*
X148828539Y-106017494D02*
X148568286Y-105757241D01*
X148568286Y-104954751D02*
X148805543Y-104717494D01*
X148568286Y-105757241D02*
X148568286Y-104954751D01*
X148805543Y-104717494D02*
X149016038Y-104717494D01*
%TO.N,Net-(J2-Pin_2)*%
D31*
X157646727Y-99708254D02*
X158987487Y-98367494D01*
%TD*%
%TA.AperFunction,Conductor*%
%TO.N,Net-(Q1-D)*%
G36*
X143357889Y-100763277D02*
G01*
X143372887Y-100767681D01*
X143387877Y-100777311D01*
X143404958Y-100782321D01*
X143431638Y-100805426D01*
X143432825Y-100806795D01*
X143460301Y-100861656D01*
X143461946Y-100869214D01*
X143464783Y-100895585D01*
X143464783Y-102116424D01*
X143459758Y-102151368D01*
X143455353Y-102166366D01*
X143445722Y-102181355D01*
X143440715Y-102198429D01*
X143417610Y-102225109D01*
X143416241Y-102226296D01*
X143361380Y-102253772D01*
X143353822Y-102255417D01*
X143327451Y-102258254D01*
X142964783Y-102258254D01*
X142964783Y-102814543D01*
X142945098Y-102881582D01*
X142892294Y-102927337D01*
X142876775Y-102933205D01*
X142831742Y-102946863D01*
X142831736Y-102946865D01*
X142821316Y-102951182D01*
X142821312Y-102951184D01*
X142772466Y-102974556D01*
X142772463Y-102974557D01*
X142772461Y-102974559D01*
X142657294Y-103060788D01*
X142657281Y-103060800D01*
X142617265Y-103100822D01*
X142617236Y-103100853D01*
X142581125Y-103141060D01*
X142581123Y-103141061D01*
X142581122Y-103141064D01*
X142547619Y-103197529D01*
X142496483Y-103245138D01*
X142440979Y-103258254D01*
X142128041Y-103258254D01*
X142128040Y-103258253D01*
X142128040Y-103258254D01*
X142093105Y-103253231D01*
X142067863Y-103245819D01*
X142015117Y-103214522D01*
X142000012Y-103199417D01*
X142000007Y-103199413D01*
X142000006Y-103199412D01*
X141999999Y-103199408D01*
X141858541Y-103115750D01*
X141858528Y-103115746D01*
X141700721Y-103069897D01*
X141700715Y-103069896D01*
X141700714Y-103069895D01*
X141700712Y-103069895D01*
X141663850Y-103066994D01*
X141663843Y-103066994D01*
X141663836Y-103066994D01*
X141232448Y-103066994D01*
X141232440Y-103066994D01*
X141232432Y-103066994D01*
X141195570Y-103069895D01*
X141195568Y-103069895D01*
X141195567Y-103069896D01*
X141195561Y-103069897D01*
X141037754Y-103115746D01*
X141037741Y-103115750D01*
X140896283Y-103199408D01*
X140896275Y-103199413D01*
X140896270Y-103199417D01*
X140896262Y-103199424D01*
X140886358Y-103209329D01*
X140869519Y-103221935D01*
X140858106Y-103230479D01*
X140835021Y-103243085D01*
X140775592Y-103258254D01*
X140464783Y-103258254D01*
X140464783Y-104616424D01*
X140464782Y-104616430D01*
X140464783Y-104616433D01*
X140459758Y-104651366D01*
X140459021Y-104653876D01*
X140455353Y-104666366D01*
X140417610Y-104725109D01*
X140417575Y-104725139D01*
X140417574Y-104725141D01*
X140417572Y-104725141D01*
X140416241Y-104726296D01*
X140361380Y-104753772D01*
X140353822Y-104755417D01*
X140327451Y-104758254D01*
X139280661Y-104758254D01*
X139265697Y-104757348D01*
X139253843Y-104755907D01*
X139229804Y-104750519D01*
X139130819Y-104717719D01*
X139130820Y-104717719D01*
X139088280Y-104713373D01*
X139079508Y-104710618D01*
X139073681Y-104710994D01*
X139045651Y-104699984D01*
X139040699Y-104698429D01*
X139039547Y-104697789D01*
X139036109Y-104695787D01*
X139035470Y-104695526D01*
X139031932Y-104693562D01*
X139009468Y-104670782D01*
X138990219Y-104653099D01*
X138989114Y-104653876D01*
X138987605Y-104651727D01*
X138986932Y-104650079D01*
X138985900Y-104649131D01*
X138984376Y-104646601D01*
X138985157Y-104646130D01*
X138982873Y-104643813D01*
X138981280Y-104636238D01*
X138966732Y-104600608D01*
X138966428Y-104598767D01*
X138964783Y-104578634D01*
X138964783Y-101900083D01*
X138969806Y-101865147D01*
X138974210Y-101850149D01*
X139011955Y-101791398D01*
X139011983Y-101791373D01*
X139011982Y-101791373D01*
X139013324Y-101790210D01*
X139068203Y-101762731D01*
X139075762Y-101761087D01*
X139102115Y-101758254D01*
X140964783Y-101758254D01*
X140964783Y-100900083D01*
X140969806Y-100865147D01*
X140974210Y-100850149D01*
X141011955Y-100791398D01*
X141011983Y-100791373D01*
X141011982Y-100791373D01*
X141013324Y-100790210D01*
X141068203Y-100762731D01*
X141075762Y-100761087D01*
X141102115Y-100758254D01*
X143322953Y-100758254D01*
X143357889Y-100763277D01*
G37*
%TD.AperFunction*%
%TD*%
%TA.AperFunction,Conductor*%
%TO.N,Net-(D3-A)*%
G36*
X156581966Y-99777161D02*
G01*
X156593779Y-99787250D01*
X156635787Y-99829258D01*
X156663564Y-99883775D01*
X156664783Y-99899262D01*
X156664783Y-100283254D01*
X156664783Y-100358254D01*
X156898775Y-100358254D01*
X156906372Y-100360722D01*
X156914262Y-100359473D01*
X156934917Y-100369997D01*
X156956966Y-100377161D01*
X156968779Y-100387250D01*
X157010787Y-100429258D01*
X157038564Y-100483775D01*
X157039783Y-100499262D01*
X157039783Y-101367246D01*
X157020876Y-101425437D01*
X157010787Y-101437250D01*
X156968779Y-101479258D01*
X156914262Y-101507035D01*
X156898775Y-101508254D01*
X154830791Y-101508254D01*
X154823193Y-101505785D01*
X154815304Y-101507035D01*
X154794648Y-101496510D01*
X154772600Y-101489347D01*
X154760787Y-101479258D01*
X154718779Y-101437250D01*
X154691002Y-101382733D01*
X154689783Y-101367246D01*
X154689783Y-99899262D01*
X154708690Y-99841071D01*
X154718779Y-99829258D01*
X154760787Y-99787250D01*
X154815304Y-99759473D01*
X154830791Y-99758254D01*
X156523775Y-99758254D01*
X156581966Y-99777161D01*
G37*
%TD.AperFunction*%
%TD*%
%TA.AperFunction,Conductor*%
%TO.N,Net-(J1-Pin_1)*%
G36*
X139631023Y-96963775D02*
G01*
X139656267Y-96971188D01*
X139709013Y-97002484D01*
X140415857Y-97709328D01*
X140437006Y-97737579D01*
X140449614Y-97760668D01*
X140464783Y-97820097D01*
X140464783Y-99689062D01*
X140459759Y-99723999D01*
X140452347Y-99749240D01*
X140421052Y-99801984D01*
X139513709Y-100709327D01*
X139496867Y-100721935D01*
X139485458Y-100730476D01*
X139462370Y-100743084D01*
X139402940Y-100758254D01*
X138172469Y-100758254D01*
X138172469Y-103689061D01*
X138172468Y-103689063D01*
X138172469Y-103689064D01*
X138167445Y-103723998D01*
X138160033Y-103749239D01*
X138128738Y-103801983D01*
X137272428Y-104658292D01*
X137244177Y-104679441D01*
X137221089Y-104692049D01*
X137161659Y-104707219D01*
X136578021Y-104707219D01*
X136578003Y-104707220D01*
X136577995Y-104707220D01*
X136577976Y-104707222D01*
X136475224Y-104717719D01*
X136475223Y-104717720D01*
X136388494Y-104746460D01*
X136349489Y-104752754D01*
X136265244Y-104752754D01*
X136230306Y-104747730D01*
X136223795Y-104745818D01*
X136171052Y-104714523D01*
X136013709Y-104557180D01*
X136013704Y-104557175D01*
X135992557Y-104528924D01*
X135979950Y-104505835D01*
X135964783Y-104446410D01*
X135964783Y-104258254D01*
X135714783Y-104258254D01*
X134726939Y-104258254D01*
X134718095Y-104257938D01*
X134717514Y-104257896D01*
X134717511Y-104257896D01*
X134688522Y-104255823D01*
X134645596Y-104252754D01*
X134645591Y-104252754D01*
X128515244Y-104252754D01*
X128515241Y-104252753D01*
X128515241Y-104252754D01*
X128480306Y-104247730D01*
X128473795Y-104245818D01*
X128421052Y-104214523D01*
X127714209Y-103507680D01*
X127693057Y-103479424D01*
X127680450Y-103456335D01*
X127665283Y-103396910D01*
X127665283Y-99763462D01*
X127665331Y-99760019D01*
X127665430Y-99756488D01*
X127665570Y-99753127D01*
X127668167Y-99706892D01*
X127682303Y-99455187D01*
X127682882Y-99448319D01*
X127683663Y-99441389D01*
X127684629Y-99434541D01*
X127733727Y-99145578D01*
X127735080Y-99138778D01*
X127736624Y-99132010D01*
X127738351Y-99125314D01*
X127819502Y-98843630D01*
X127821599Y-98837052D01*
X127823908Y-98830456D01*
X127826362Y-98824026D01*
X127938534Y-98553217D01*
X127941354Y-98546915D01*
X127944389Y-98540613D01*
X127947545Y-98534504D01*
X128089350Y-98277926D01*
X128092882Y-98271941D01*
X128096560Y-98266089D01*
X128100417Y-98260318D01*
X128270010Y-98021300D01*
X128274158Y-98015786D01*
X128278517Y-98010318D01*
X128282961Y-98005056D01*
X128478312Y-97786457D01*
X128483057Y-97781439D01*
X128487968Y-97776528D01*
X128492986Y-97771783D01*
X128711585Y-97576432D01*
X128716847Y-97571988D01*
X128722315Y-97567629D01*
X128727818Y-97563488D01*
X128966852Y-97393884D01*
X128972618Y-97390031D01*
X128972714Y-97389970D01*
X128978482Y-97386345D01*
X128984455Y-97382821D01*
X129241033Y-97241016D01*
X129247142Y-97237860D01*
X129253444Y-97234825D01*
X129259746Y-97232005D01*
X129530537Y-97119840D01*
X129537008Y-97117371D01*
X129537590Y-97117167D01*
X129543568Y-97115075D01*
X129550167Y-97112971D01*
X129831843Y-97031822D01*
X129838539Y-97030095D01*
X129845314Y-97028549D01*
X129852107Y-97027198D01*
X130141070Y-96978100D01*
X130147918Y-96977134D01*
X130154848Y-96976353D01*
X130161716Y-96975774D01*
X130459647Y-96959042D01*
X130463022Y-96958901D01*
X130466556Y-96958801D01*
X130469993Y-96958754D01*
X139596091Y-96958754D01*
X139631023Y-96963775D01*
G37*
%TD.AperFunction*%
%TD*%
%TA.AperFunction,Conductor*%
%TO.N,GND*%
G36*
X134680523Y-104763275D02*
G01*
X134705767Y-104770688D01*
X134758513Y-104801984D01*
X134915857Y-104959328D01*
X134937006Y-104987579D01*
X134949614Y-105010668D01*
X134964783Y-105070097D01*
X134964783Y-105258254D01*
X136895591Y-105258254D01*
X136930523Y-105263275D01*
X136955767Y-105270688D01*
X137008513Y-105301984D01*
X137361703Y-105655174D01*
X137395188Y-105716497D01*
X137398022Y-105742855D01*
X137398022Y-106375652D01*
X137397379Y-106388261D01*
X137397144Y-106390560D01*
X137391493Y-106416956D01*
X137373567Y-106471051D01*
X137368625Y-106483273D01*
X137368721Y-106483315D01*
X137354113Y-106516506D01*
X137354109Y-106516514D01*
X137354104Y-106516528D01*
X137332081Y-106577718D01*
X137330460Y-106582225D01*
X137321403Y-106614162D01*
X137307043Y-106682461D01*
X137307042Y-106682463D01*
X137302342Y-106716269D01*
X137302339Y-106716294D01*
X137297523Y-106785897D01*
X137297523Y-110620927D01*
X137300414Y-110674903D01*
X137300548Y-110676557D01*
X137300503Y-110676560D01*
X137300505Y-110676592D01*
X137300010Y-110676618D01*
X137300724Y-110678531D01*
X137293737Y-110710649D01*
X137287869Y-110742992D01*
X137286198Y-110745305D01*
X137285873Y-110746804D01*
X137264722Y-110775058D01*
X137214207Y-110825574D01*
X137185954Y-110846725D01*
X137162869Y-110859331D01*
X137103440Y-110874500D01*
X130469993Y-110874500D01*
X130466521Y-110874451D01*
X130463057Y-110874353D01*
X130459586Y-110874208D01*
X130161758Y-110857481D01*
X130154837Y-110856897D01*
X130147945Y-110856121D01*
X130141048Y-110855148D01*
X129852134Y-110806059D01*
X129845313Y-110804702D01*
X129838535Y-110803155D01*
X129831800Y-110801418D01*
X129550201Y-110720291D01*
X129543570Y-110718177D01*
X129537009Y-110715881D01*
X129530514Y-110713402D01*
X129259774Y-110601258D01*
X129253427Y-110598418D01*
X129247166Y-110595403D01*
X129240992Y-110592214D01*
X129238216Y-110590680D01*
X129238209Y-110590676D01*
X128984496Y-110450453D01*
X128978504Y-110446918D01*
X128972606Y-110443212D01*
X128966848Y-110439365D01*
X128727824Y-110269768D01*
X128722296Y-110265608D01*
X128716862Y-110261275D01*
X128711543Y-110256784D01*
X128493015Y-110061495D01*
X128487961Y-110056716D01*
X128483065Y-110051820D01*
X128478286Y-110046766D01*
X128282995Y-109828235D01*
X128278511Y-109822924D01*
X128274186Y-109817501D01*
X128270028Y-109811977D01*
X128100391Y-109572896D01*
X128096571Y-109567178D01*
X128092863Y-109561279D01*
X128089347Y-109555320D01*
X127947566Y-109298787D01*
X127944380Y-109292619D01*
X127941366Y-109286361D01*
X127938533Y-109280032D01*
X127826364Y-109009232D01*
X127823898Y-109002770D01*
X127821602Y-108996206D01*
X127819495Y-108989596D01*
X127738361Y-108707974D01*
X127736623Y-108701235D01*
X127735078Y-108694465D01*
X127733725Y-108687665D01*
X127684628Y-108398698D01*
X127683665Y-108391882D01*
X127682881Y-108384918D01*
X127682301Y-108378032D01*
X127665571Y-108080138D01*
X127665430Y-108076760D01*
X127665330Y-108073225D01*
X127665283Y-108069790D01*
X127665283Y-105126945D01*
X127670305Y-105092012D01*
X127677717Y-105066767D01*
X127709011Y-105014025D01*
X127915859Y-104807177D01*
X127944109Y-104786029D01*
X127967201Y-104773421D01*
X128026626Y-104758254D01*
X134645591Y-104758254D01*
X134680523Y-104763275D01*
G37*
%TD.AperFunction*%
%TD*%
%TA.AperFunction,Conductor*%
%TO.N,Net-(D1-A)*%
G36*
X141635708Y-103577411D02*
G01*
X141641134Y-103578988D01*
X141669661Y-103591330D01*
X141717123Y-103619399D01*
X141730063Y-103628199D01*
X141757167Y-103649254D01*
X141757169Y-103649255D01*
X141809918Y-103680554D01*
X141809921Y-103680555D01*
X141890274Y-103715533D01*
X141943886Y-103760338D01*
X141964763Y-103827016D01*
X141964783Y-103829228D01*
X141964783Y-104535021D01*
X141964186Y-104547172D01*
X141959283Y-104596965D01*
X141959283Y-108694533D01*
X141964186Y-108744332D01*
X141964783Y-108756482D01*
X141964783Y-110616424D01*
X141964782Y-110616430D01*
X141964783Y-110616433D01*
X141959758Y-110651368D01*
X141955353Y-110666366D01*
X141917610Y-110725109D01*
X141917575Y-110725139D01*
X141917574Y-110725141D01*
X141917572Y-110725141D01*
X141916241Y-110726296D01*
X141861380Y-110753772D01*
X141853822Y-110755417D01*
X141827451Y-110758254D01*
X137944853Y-110758254D01*
X137944848Y-110758253D01*
X137944846Y-110758254D01*
X137909912Y-110753229D01*
X137894913Y-110748824D01*
X137836167Y-110711081D01*
X137836138Y-110711047D01*
X137836137Y-110711047D01*
X137836136Y-110711045D01*
X137834980Y-110709712D01*
X137807500Y-110654837D01*
X137805855Y-110647275D01*
X137803023Y-110620922D01*
X137803023Y-106785903D01*
X137807727Y-106752072D01*
X137816781Y-106720146D01*
X137830539Y-106688884D01*
X137837837Y-106677053D01*
X137893022Y-106510516D01*
X137903523Y-106407728D01*
X137903522Y-105407711D01*
X137903520Y-105407694D01*
X137903469Y-105406690D01*
X137903522Y-105405893D01*
X137903522Y-105404555D01*
X137903611Y-105404555D01*
X137905396Y-105377708D01*
X137908158Y-105362852D01*
X137939763Y-105300542D01*
X137997584Y-105265850D01*
X138009623Y-105262582D01*
X138042098Y-105258254D01*
X139189785Y-105258254D01*
X139202823Y-105259043D01*
X139202829Y-105258984D01*
X139204689Y-105259153D01*
X139204696Y-105259154D01*
X139235147Y-105261924D01*
X139250111Y-105262830D01*
X139258597Y-105263086D01*
X139280648Y-105263754D01*
X139280661Y-105263754D01*
X140327451Y-105263754D01*
X140381521Y-105260854D01*
X140393191Y-105259598D01*
X140399082Y-105258965D01*
X140412342Y-105258254D01*
X140964783Y-105258254D01*
X140964783Y-104698054D01*
X140964962Y-104691394D01*
X140965116Y-104688521D01*
X140965133Y-104688407D01*
X140966510Y-104662609D01*
X140966748Y-104659120D01*
X140970283Y-104616424D01*
X140970283Y-103813314D01*
X140989968Y-103746275D01*
X141031324Y-103706486D01*
X141039760Y-103701514D01*
X141077291Y-103686747D01*
X141100376Y-103674141D01*
X141161048Y-103635147D01*
X141189300Y-103613997D01*
X141191460Y-103612125D01*
X141226614Y-103591334D01*
X141255147Y-103578988D01*
X141260559Y-103577416D01*
X141295147Y-103572494D01*
X141601135Y-103572494D01*
X141635708Y-103577411D01*
G37*
%TD.AperFunction*%
%TD*%
%TA.AperFunction,Conductor*%
%TO.N,GND*%
G36*
X153998226Y-96964385D02*
G01*
X154023358Y-96974795D01*
X154047364Y-96990835D01*
X154182701Y-97126172D01*
X154198740Y-97150175D01*
X154209151Y-97175309D01*
X154214783Y-97203624D01*
X154214783Y-101808254D01*
X162789846Y-101808254D01*
X162818160Y-101813885D01*
X162843292Y-101824295D01*
X162867298Y-101840335D01*
X163002635Y-101975672D01*
X163018674Y-101999675D01*
X163029085Y-102024809D01*
X163034717Y-102053124D01*
X163034717Y-104513383D01*
X163029084Y-104541699D01*
X163018676Y-104566829D01*
X163002635Y-104590835D01*
X162867298Y-104726172D01*
X162843292Y-104742212D01*
X162818162Y-104752621D01*
X162789846Y-104758254D01*
X152689783Y-104758254D01*
X152689783Y-104837883D01*
X152684150Y-104866199D01*
X152673742Y-104891329D01*
X152657701Y-104915335D01*
X152596864Y-104976172D01*
X152572858Y-104992212D01*
X152547728Y-105002621D01*
X152519412Y-105008254D01*
X150439783Y-105008254D01*
X150439783Y-105761835D01*
X150438929Y-105773044D01*
X150438018Y-105778988D01*
X150430057Y-105803491D01*
X150420000Y-105866993D01*
X150420000Y-105896565D01*
X150419146Y-105902138D01*
X150418351Y-105903448D01*
X150417479Y-105910080D01*
X150408914Y-105942044D01*
X150408912Y-105942051D01*
X150406262Y-105955377D01*
X150403669Y-105968415D01*
X150403667Y-105968429D01*
X150403666Y-105968429D01*
X150400297Y-105994023D01*
X150400294Y-105994053D01*
X150398539Y-106020830D01*
X150398538Y-106020867D01*
X150398538Y-106134254D01*
X150401067Y-106166396D01*
X150405902Y-106196926D01*
X150406685Y-106201541D01*
X150418465Y-106229100D01*
X150419847Y-106232572D01*
X150422937Y-106240950D01*
X150422659Y-106241041D01*
X150427505Y-106255954D01*
X150434566Y-106272473D01*
X150435210Y-106274218D01*
X150435101Y-106276970D01*
X150439783Y-106299829D01*
X150439783Y-107883254D01*
X151519412Y-107883254D01*
X151547726Y-107888885D01*
X151572858Y-107899295D01*
X151596864Y-107915335D01*
X151932701Y-108251172D01*
X151948740Y-108275175D01*
X151959151Y-108300309D01*
X151964783Y-108328624D01*
X151964783Y-110629629D01*
X151959150Y-110657945D01*
X151948743Y-110683072D01*
X151948742Y-110683075D01*
X151932701Y-110707081D01*
X151797364Y-110842418D01*
X151773358Y-110858458D01*
X151748228Y-110868867D01*
X151719912Y-110874500D01*
X145384654Y-110874500D01*
X145356336Y-110868867D01*
X145331207Y-110858458D01*
X145307201Y-110842418D01*
X145171864Y-110707081D01*
X145155824Y-110683075D01*
X145145414Y-110657943D01*
X145139783Y-110629629D01*
X145139783Y-106203624D01*
X145145414Y-106175310D01*
X145155825Y-106150175D01*
X145171861Y-106126175D01*
X145507704Y-105790332D01*
X145531707Y-105774295D01*
X145556838Y-105763885D01*
X145585154Y-105758254D01*
X147214783Y-105758254D01*
X147214783Y-105753624D01*
X147220416Y-105725306D01*
X147226675Y-105710195D01*
X147266721Y-105670147D01*
X147281838Y-105663885D01*
X147310154Y-105658254D01*
X147794412Y-105658254D01*
X147822726Y-105663885D01*
X147847858Y-105674295D01*
X147871864Y-105690335D01*
X148207701Y-106026172D01*
X148223740Y-106050175D01*
X148234151Y-106075309D01*
X148239783Y-106103624D01*
X148239783Y-107058254D01*
X148989783Y-107058254D01*
X149389783Y-107058254D01*
X149389783Y-106182624D01*
X149393178Y-106165559D01*
X149392361Y-106165397D01*
X149393783Y-106158248D01*
X149393783Y-99458254D01*
X148993783Y-99458254D01*
X141422654Y-99458254D01*
X141394336Y-99452621D01*
X141369207Y-99442212D01*
X141345201Y-99426172D01*
X141271864Y-99352835D01*
X141255824Y-99328829D01*
X141245414Y-99303697D01*
X141239783Y-99275383D01*
X141239783Y-97203624D01*
X141245414Y-97175310D01*
X141255825Y-97150175D01*
X141271861Y-97126175D01*
X141407204Y-96990832D01*
X141431207Y-96974795D01*
X141456338Y-96964385D01*
X141484654Y-96958754D01*
X153969912Y-96958754D01*
X153998226Y-96964385D01*
G37*
%TD.AperFunction*%
%TD*%
%TA.AperFunction,Conductor*%
%TO.N,Net-(J2-Pin_2)*%
G36*
X162993908Y-105177161D02*
G01*
X163029872Y-105226661D01*
X163034717Y-105257254D01*
X163034717Y-108072219D01*
X163034561Y-108077772D01*
X163017420Y-108382887D01*
X163016177Y-108393919D01*
X162965449Y-108692455D01*
X162962979Y-108703278D01*
X162879143Y-108994268D01*
X162875476Y-109004746D01*
X162759593Y-109284507D01*
X162754776Y-109294510D01*
X162608292Y-109559548D01*
X162602385Y-109568948D01*
X162427156Y-109815909D01*
X162420235Y-109824588D01*
X162218452Y-110050384D01*
X162210601Y-110058235D01*
X161984805Y-110260018D01*
X161976126Y-110266939D01*
X161729165Y-110442168D01*
X161719765Y-110448075D01*
X161454727Y-110594559D01*
X161444724Y-110599376D01*
X161164963Y-110715259D01*
X161154485Y-110718926D01*
X160863495Y-110802762D01*
X160852672Y-110805232D01*
X160554136Y-110855960D01*
X160543104Y-110857203D01*
X160237990Y-110874344D01*
X160232437Y-110874500D01*
X152813783Y-110874500D01*
X152755592Y-110855593D01*
X152719628Y-110806093D01*
X152714783Y-110775500D01*
X152714783Y-109560055D01*
X152711105Y-109552837D01*
X152709886Y-109537350D01*
X152709886Y-107258255D01*
X152709886Y-107258254D01*
X152709885Y-107258254D01*
X151132538Y-107258254D01*
X151074347Y-107239347D01*
X151038383Y-107189847D01*
X151033538Y-107159254D01*
X151033538Y-106724746D01*
X151039783Y-106705525D01*
X151039783Y-106233255D01*
X151039783Y-106233254D01*
X151039782Y-106233254D01*
X150703038Y-106233254D01*
X150688126Y-106228409D01*
X150672445Y-106228409D01*
X150659759Y-106219192D01*
X150644847Y-106214347D01*
X150635630Y-106201661D01*
X150622945Y-106192445D01*
X150618099Y-106177532D01*
X150608883Y-106164847D01*
X150604038Y-106134254D01*
X150604038Y-106020859D01*
X150607411Y-105995237D01*
X150608561Y-105990943D01*
X150625500Y-105927727D01*
X150625500Y-105866993D01*
X150644407Y-105808802D01*
X150693907Y-105772838D01*
X150724495Y-105767993D01*
X150928722Y-105767993D01*
X150953324Y-105765140D01*
X151053960Y-105720705D01*
X151053961Y-105720703D01*
X151062352Y-105716999D01*
X151063815Y-105720313D01*
X151102793Y-105708254D01*
X151233537Y-105708254D01*
X151233538Y-105708254D01*
X151233538Y-105466494D01*
X151252445Y-105408303D01*
X151301945Y-105372339D01*
X151332538Y-105367494D01*
X158214782Y-105367494D01*
X158214783Y-105367494D01*
X158214783Y-105257254D01*
X158233690Y-105199063D01*
X158283190Y-105163099D01*
X158313783Y-105158254D01*
X162935717Y-105158254D01*
X162993908Y-105177161D01*
G37*
%TD.AperFunction*%
%TD*%
%TA.AperFunction,Conductor*%
%TO.N,Net-(D1-K)*%
G36*
X148654374Y-99788883D02*
G01*
X148664786Y-99793196D01*
X148664787Y-99793197D01*
X148664788Y-99793197D01*
X148664793Y-99793199D01*
X148684810Y-99813217D01*
X148704836Y-99833239D01*
X148704839Y-99833246D01*
X148709150Y-99843654D01*
X148714783Y-99871972D01*
X148714783Y-103633254D01*
X149122180Y-103633254D01*
X149150490Y-103638883D01*
X149160902Y-103643196D01*
X149200952Y-103683239D01*
X149200955Y-103683246D01*
X149205266Y-103693654D01*
X149210899Y-103721972D01*
X149210899Y-104928275D01*
X149205266Y-104956593D01*
X149200955Y-104967001D01*
X149160907Y-105007049D01*
X149160906Y-105007050D01*
X149150498Y-105011361D01*
X149122180Y-105016994D01*
X148898235Y-105016994D01*
X148834134Y-105029744D01*
X148830489Y-105030103D01*
X148826982Y-105031166D01*
X148746200Y-105085144D01*
X148746193Y-105085151D01*
X148692209Y-105165942D01*
X148678038Y-105237190D01*
X148678038Y-105428138D01*
X148672404Y-105456459D01*
X148669037Y-105464587D01*
X148628988Y-105504634D01*
X148586234Y-105508844D01*
X148583268Y-105508254D01*
X148564783Y-105508254D01*
X148378502Y-105508254D01*
X148350187Y-105502622D01*
X148339778Y-105498311D01*
X148339774Y-105498307D01*
X148339769Y-105498307D01*
X148339767Y-105498306D01*
X148319748Y-105478283D01*
X148299729Y-105458267D01*
X148295412Y-105447845D01*
X148289783Y-105419535D01*
X148289783Y-105358254D01*
X144889783Y-105358254D01*
X144872198Y-105358254D01*
X144863488Y-105361862D01*
X144835171Y-105367494D01*
X144714783Y-105367494D01*
X144714783Y-110785781D01*
X144709150Y-110814099D01*
X144704839Y-110824507D01*
X144664791Y-110864555D01*
X144664790Y-110864556D01*
X144654382Y-110868867D01*
X144626064Y-110874500D01*
X142703502Y-110874500D01*
X142675187Y-110868868D01*
X142664778Y-110864557D01*
X142664774Y-110864553D01*
X142664769Y-110864553D01*
X142664767Y-110864552D01*
X142644748Y-110844529D01*
X142624729Y-110824513D01*
X142620412Y-110814091D01*
X142614783Y-110785781D01*
X142614783Y-108783254D01*
X142553502Y-108783254D01*
X142525187Y-108777622D01*
X142514778Y-108773311D01*
X142474729Y-108733267D01*
X142470412Y-108722845D01*
X142464783Y-108694535D01*
X142464783Y-104596972D01*
X142470412Y-104568663D01*
X142474726Y-104558248D01*
X142514765Y-104518202D01*
X142525194Y-104513882D01*
X142553502Y-104508254D01*
X142964783Y-104508254D01*
X142964783Y-103496972D01*
X142970412Y-103468663D01*
X142974726Y-103458248D01*
X143014765Y-103418202D01*
X143025194Y-103413882D01*
X143053502Y-103408254D01*
X144039783Y-103408254D01*
X144039783Y-99871972D01*
X144045412Y-99843663D01*
X144049726Y-99833248D01*
X144089765Y-99793202D01*
X144100194Y-99788882D01*
X144128502Y-99783254D01*
X148626064Y-99783254D01*
X148654374Y-99788883D01*
G37*
%TD.AperFunction*%
%TA.AperFunction,Conductor*%
G36*
X148672727Y-105562342D02*
G01*
X148705943Y-105589598D01*
X148746194Y-105649838D01*
X148826986Y-105703822D01*
X148898233Y-105717994D01*
X149122180Y-105717993D01*
X149150490Y-105723622D01*
X149160902Y-105727935D01*
X149200952Y-105767978D01*
X149200955Y-105767985D01*
X149205266Y-105778393D01*
X149210899Y-105806711D01*
X149210899Y-106594535D01*
X149205266Y-106622853D01*
X149200955Y-106633261D01*
X149160907Y-106673309D01*
X149160906Y-106673310D01*
X149150498Y-106677621D01*
X149122180Y-106683254D01*
X148653502Y-106683254D01*
X148625187Y-106677622D01*
X148614778Y-106673311D01*
X148574729Y-106633267D01*
X148570412Y-106622845D01*
X148564783Y-106594535D01*
X148564783Y-105637000D01*
X148570414Y-105608686D01*
X148573464Y-105601322D01*
X148613511Y-105561275D01*
X148670141Y-105561271D01*
X148672727Y-105562342D01*
G37*
%TD.AperFunction*%
%TD*%
%TA.AperFunction,Conductor*%
%TO.N,Net-(J2-Pin_2)*%
G36*
X160233788Y-96958791D02*
G01*
X160236627Y-96958870D01*
X160239323Y-96958983D01*
X160540343Y-96975894D01*
X160545854Y-96976360D01*
X160551382Y-96976983D01*
X160556864Y-96977756D01*
X160849966Y-97027562D01*
X160855332Y-97028629D01*
X160860823Y-97029882D01*
X160866127Y-97031250D01*
X161151832Y-97113564D01*
X161157095Y-97115242D01*
X161162347Y-97117079D01*
X161167498Y-97119046D01*
X161304842Y-97175937D01*
X161442180Y-97232825D01*
X161447246Y-97235093D01*
X161452212Y-97237485D01*
X161457139Y-97240030D01*
X161717338Y-97383839D01*
X161722116Y-97386657D01*
X161726819Y-97389613D01*
X161731425Y-97392691D01*
X161973867Y-97564714D01*
X161978278Y-97568033D01*
X161982670Y-97571536D01*
X161986850Y-97575066D01*
X162208530Y-97773172D01*
X162212547Y-97776969D01*
X162216500Y-97780922D01*
X162220298Y-97784940D01*
X162418400Y-98006616D01*
X162421936Y-98010803D01*
X162425431Y-98015185D01*
X162428755Y-98019602D01*
X162600778Y-98262044D01*
X162603864Y-98266662D01*
X162606809Y-98271349D01*
X162609630Y-98276131D01*
X162753428Y-98536308D01*
X162755976Y-98541240D01*
X162758385Y-98546242D01*
X162760654Y-98551313D01*
X162874413Y-98825946D01*
X162876390Y-98831124D01*
X162878220Y-98836352D01*
X162879910Y-98841652D01*
X162962213Y-99127320D01*
X162963593Y-99132671D01*
X162964834Y-99138110D01*
X162965911Y-99143524D01*
X163015710Y-99436589D01*
X163016486Y-99442087D01*
X163017109Y-99447615D01*
X163017576Y-99453149D01*
X163034482Y-99754080D01*
X163034598Y-99756825D01*
X163034677Y-99759609D01*
X163034717Y-99762417D01*
X163034717Y-101393573D01*
X163029871Y-101424166D01*
X163025749Y-101436852D01*
X162989797Y-101486343D01*
X162985676Y-101489338D01*
X162927488Y-101508254D01*
X157996471Y-101508254D01*
X157965878Y-101503408D01*
X157942651Y-101495861D01*
X157903240Y-101471711D01*
X157779865Y-101348336D01*
X157761659Y-101323277D01*
X157750571Y-101301515D01*
X157739783Y-101256573D01*
X157739783Y-100158255D01*
X157739783Y-100158254D01*
X157739782Y-100158254D01*
X157221471Y-100158254D01*
X157190878Y-100153408D01*
X157167651Y-100145861D01*
X157128240Y-100121711D01*
X157004865Y-99998336D01*
X156986659Y-99973277D01*
X156975571Y-99951515D01*
X156964783Y-99906573D01*
X156964783Y-97073434D01*
X156969626Y-97042848D01*
X156973748Y-97030159D01*
X157009706Y-96980660D01*
X157013701Y-96977759D01*
X157013846Y-96977654D01*
X157072026Y-96958754D01*
X160231071Y-96958754D01*
X160233788Y-96958791D01*
G37*
%TD.AperFunction*%
%TD*%
M02*
