%TF.GenerationSoftware,KiCad,Pcbnew,10.0.3*%
%TF.CreationDate,2026-06-12T02:26:47+05:00*%
%TF.ProjectId,Battery_Powered_3.3V_Regulator,42617474-6572-4795-9f50-6f7765726564,rev?*%
%TF.SameCoordinates,Original*%
%TF.FileFunction,Drillmap*%
%TF.FilePolarity,Positive*%
%FSLAX45Y45*%
G04 Gerber Fmt 4.5, Leading zero omitted, Abs format (unit mm)*
G04 Created by KiCad (PCBNEW 10.0.3) date 2026-06-12 02:26:47*
%MOMM*%
%LPD*%
G01*
G04 APERTURE LIST*
%ADD10C,0.050000*%
%ADD11C,0.200000*%
G04 APERTURE END LIST*
D10*
X12746478Y-9975825D02*
G75*
G02*
X13046478Y-9675828I300002J-5D01*
G01*
X12746478Y-10807500D02*
X12746478Y-9975825D01*
X13046478Y-9675825D02*
X16023522Y-9675825D01*
X13046478Y-11107500D02*
G75*
G02*
X12746480Y-10807500I2J300000D01*
G01*
X16023522Y-9675825D02*
G75*
G02*
X16323525Y-9975825I-2J-300005D01*
G01*
X16023522Y-11107500D02*
X13046478Y-11107500D01*
X16323522Y-9975825D02*
X16323522Y-10807500D01*
X16323522Y-10807500D02*
G75*
G02*
X16023522Y-11107492I-300002J10D01*
G01*
D11*
X13004755Y-11421484D02*
X13004755Y-11221484D01*
X13004755Y-11221484D02*
X13052374Y-11221484D01*
X13052374Y-11221484D02*
X13080946Y-11231008D01*
X13080946Y-11231008D02*
X13099993Y-11250055D01*
X13099993Y-11250055D02*
X13109517Y-11269103D01*
X13109517Y-11269103D02*
X13119041Y-11307198D01*
X13119041Y-11307198D02*
X13119041Y-11335769D01*
X13119041Y-11335769D02*
X13109517Y-11373865D01*
X13109517Y-11373865D02*
X13099993Y-11392912D01*
X13099993Y-11392912D02*
X13080946Y-11411960D01*
X13080946Y-11411960D02*
X13052374Y-11421484D01*
X13052374Y-11421484D02*
X13004755Y-11421484D01*
X13204755Y-11421484D02*
X13204755Y-11288150D01*
X13204755Y-11326246D02*
X13214279Y-11307198D01*
X13214279Y-11307198D02*
X13223803Y-11297674D01*
X13223803Y-11297674D02*
X13242850Y-11288150D01*
X13242850Y-11288150D02*
X13261898Y-11288150D01*
X13328565Y-11421484D02*
X13328565Y-11288150D01*
X13328565Y-11221484D02*
X13319041Y-11231008D01*
X13319041Y-11231008D02*
X13328565Y-11240531D01*
X13328565Y-11240531D02*
X13338088Y-11231008D01*
X13338088Y-11231008D02*
X13328565Y-11221484D01*
X13328565Y-11221484D02*
X13328565Y-11240531D01*
X13452374Y-11421484D02*
X13433326Y-11411960D01*
X13433326Y-11411960D02*
X13423803Y-11392912D01*
X13423803Y-11392912D02*
X13423803Y-11221484D01*
X13557136Y-11421484D02*
X13538088Y-11411960D01*
X13538088Y-11411960D02*
X13528565Y-11392912D01*
X13528565Y-11392912D02*
X13528565Y-11221484D01*
X13785707Y-11421484D02*
X13785707Y-11221484D01*
X13785707Y-11221484D02*
X13852374Y-11364341D01*
X13852374Y-11364341D02*
X13919041Y-11221484D01*
X13919041Y-11221484D02*
X13919041Y-11421484D01*
X14099993Y-11421484D02*
X14099993Y-11316722D01*
X14099993Y-11316722D02*
X14090469Y-11297674D01*
X14090469Y-11297674D02*
X14071422Y-11288150D01*
X14071422Y-11288150D02*
X14033326Y-11288150D01*
X14033326Y-11288150D02*
X14014279Y-11297674D01*
X14099993Y-11411960D02*
X14080946Y-11421484D01*
X14080946Y-11421484D02*
X14033326Y-11421484D01*
X14033326Y-11421484D02*
X14014279Y-11411960D01*
X14014279Y-11411960D02*
X14004755Y-11392912D01*
X14004755Y-11392912D02*
X14004755Y-11373865D01*
X14004755Y-11373865D02*
X14014279Y-11354817D01*
X14014279Y-11354817D02*
X14033326Y-11345293D01*
X14033326Y-11345293D02*
X14080946Y-11345293D01*
X14080946Y-11345293D02*
X14099993Y-11335769D01*
X14195231Y-11288150D02*
X14195231Y-11488150D01*
X14195231Y-11297674D02*
X14214279Y-11288150D01*
X14214279Y-11288150D02*
X14252374Y-11288150D01*
X14252374Y-11288150D02*
X14271422Y-11297674D01*
X14271422Y-11297674D02*
X14280946Y-11307198D01*
X14280946Y-11307198D02*
X14290469Y-11326246D01*
X14290469Y-11326246D02*
X14290469Y-11383388D01*
X14290469Y-11383388D02*
X14280946Y-11402436D01*
X14280946Y-11402436D02*
X14271422Y-11411960D01*
X14271422Y-11411960D02*
X14252374Y-11421484D01*
X14252374Y-11421484D02*
X14214279Y-11421484D01*
X14214279Y-11421484D02*
X14195231Y-11411960D01*
X14376184Y-11402436D02*
X14385707Y-11411960D01*
X14385707Y-11411960D02*
X14376184Y-11421484D01*
X14376184Y-11421484D02*
X14366660Y-11411960D01*
X14366660Y-11411960D02*
X14376184Y-11402436D01*
X14376184Y-11402436D02*
X14376184Y-11421484D01*
X14376184Y-11297674D02*
X14385707Y-11307198D01*
X14385707Y-11307198D02*
X14376184Y-11316722D01*
X14376184Y-11316722D02*
X14366660Y-11307198D01*
X14366660Y-11307198D02*
X14376184Y-11297674D01*
X14376184Y-11297674D02*
X14376184Y-11316722D01*
M02*
