%TF.GenerationSoftware,KiCad,Pcbnew,10.0.3*%
%TF.CreationDate,2026-06-12T02:27:38+05:00*%
%TF.ProjectId,Battery_Powered_3.3V_Regulator,42617474-6572-4795-9f50-6f7765726564,rev?*%
%TF.SameCoordinates,Original*%
%TF.FileFunction,Soldermask,Top*%
%TF.FilePolarity,Negative*%
%FSLAX46Y46*%
G04 Gerber Fmt 4.6, Leading zero omitted, Abs format (unit mm)*
G04 Created by KiCad (PCBNEW 10.0.3) date 2026-06-12 02:27:38*
%MOMM*%
%LPD*%
G01*
G04 APERTURE LIST*
G04 Aperture macros list*
%AMRoundRect*
0 Rectangle with rounded corners*
0 $1 Rounding radius*
0 $2 $3 $4 $5 $6 $7 $8 $9 X,Y pos of 4 corners*
0 Add a 4 corners polygon primitive as box body*
4,1,4,$2,$3,$4,$5,$6,$7,$8,$9,$2,$3,0*
0 Add four circle primitives for the rounded corners*
1,1,$1+$1,$2,$3*
1,1,$1+$1,$4,$5*
1,1,$1+$1,$6,$7*
1,1,$1+$1,$8,$9*
0 Add four rect primitives between the rounded corners*
20,1,$1+$1,$2,$3,$4,$5,0*
20,1,$1+$1,$4,$5,$6,$7,0*
20,1,$1+$1,$6,$7,$8,$9,0*
20,1,$1+$1,$8,$9,$2,$3,0*%
G04 Aperture macros list end*
%ADD10RoundRect,0.093750X0.093750X0.106250X-0.093750X0.106250X-0.093750X-0.106250X0.093750X-0.106250X0*%
%ADD11R,1.000000X1.600000*%
%ADD12RoundRect,0.150000X0.150000X-0.587500X0.150000X0.587500X-0.150000X0.587500X-0.150000X-0.587500X0*%
%ADD13RoundRect,0.250000X-0.625000X0.350000X-0.625000X-0.350000X0.625000X-0.350000X0.625000X0.350000X0*%
%ADD14O,1.750000X1.200000*%
%ADD15C,1.500000*%
%ADD16RoundRect,0.218750X-0.218750X-0.256250X0.218750X-0.256250X0.218750X0.256250X-0.218750X0.256250X0*%
%ADD17RoundRect,0.250000X-0.375000X-0.625000X0.375000X-0.625000X0.375000X0.625000X-0.375000X0.625000X0*%
%ADD18RoundRect,0.250000X-0.262500X-0.450000X0.262500X-0.450000X0.262500X0.450000X-0.262500X0.450000X0*%
%ADD19RoundRect,0.250000X-0.475000X0.250000X-0.475000X-0.250000X0.475000X-0.250000X0.475000X0.250000X0*%
%ADD20RoundRect,0.225000X-0.250000X0.225000X-0.250000X-0.225000X0.250000X-0.225000X0.250000X0.225000X0*%
%ADD21RoundRect,0.250000X0.300000X0.300000X-0.300000X0.300000X-0.300000X-0.300000X0.300000X-0.300000X0*%
%ADD22RoundRect,0.250000X-1.000000X-0.650000X1.000000X-0.650000X1.000000X0.650000X-1.000000X0.650000X0*%
%ADD23RoundRect,0.250000X0.475000X-0.250000X0.475000X0.250000X-0.475000X0.250000X-0.475000X-0.250000X0*%
%ADD24R,1.700000X1.700000*%
%ADD25C,1.700000*%
%ADD26RoundRect,0.200000X0.200000X0.275000X-0.200000X0.275000X-0.200000X-0.275000X0.200000X-0.275000X0*%
%ADD27RoundRect,0.225000X0.250000X-0.225000X0.250000X0.225000X-0.250000X0.225000X-0.250000X-0.225000X0*%
G04 APERTURE END LIST*
D10*
%TO.C,U1*%
X150791038Y-106017494D03*
X150791038Y-105367494D03*
X150791038Y-104717494D03*
X149016038Y-104717494D03*
X149016038Y-105367494D03*
X149016038Y-106017494D03*
D11*
X149903538Y-105367494D03*
%TD*%
D12*
%TO.C,Q1*%
X141448142Y-104304994D03*
X143348142Y-104304994D03*
X142398142Y-102429994D03*
%TD*%
D13*
%TO.C,J1*%
X133914783Y-103520332D03*
D14*
X133914783Y-105520332D03*
%TD*%
D15*
%TO.C,TP1*%
X138487487Y-98367494D03*
%TD*%
D16*
%TO.C,D3*%
X153557631Y-100892105D03*
X155132631Y-100892105D03*
%TD*%
D17*
%TO.C,F1*%
X136772469Y-103511947D03*
X139572469Y-103511947D03*
%TD*%
D18*
%TO.C,R1*%
X136890523Y-105907719D03*
X138715523Y-105907719D03*
%TD*%
D15*
%TO.C,TP3*%
X158987487Y-98367494D03*
%TD*%
D19*
%TO.C,C1*%
X145964783Y-104417494D03*
X145964783Y-106317494D03*
%TD*%
D20*
%TO.C,C2*%
X147771147Y-104592494D03*
X147771147Y-106142494D03*
%TD*%
D21*
%TO.C,D1*%
X143712189Y-106576505D03*
X140912189Y-106576505D03*
%TD*%
D22*
%TO.C,D2*%
X146964783Y-101758254D03*
X150964783Y-101758254D03*
%TD*%
D23*
%TO.C,C4*%
X153689886Y-106019311D03*
X153689886Y-104119311D03*
%TD*%
D15*
%TO.C,TP2*%
X148487487Y-98367494D03*
%TD*%
D23*
%TO.C,C5*%
X156031613Y-106004355D03*
X156031613Y-104104355D03*
%TD*%
D24*
%TO.C,J2*%
X158817112Y-103570773D03*
D25*
X158817112Y-106110773D03*
%TD*%
D26*
%TO.C,R2*%
X158251351Y-100909712D03*
X156601351Y-100909712D03*
%TD*%
D27*
%TO.C,C3*%
X151964783Y-105985167D03*
X151964783Y-104435167D03*
%TD*%
M02*
