M48
; DRILL file KiCad 10.0.3 date 2026-06-12T02:28:05
; FORMAT={-:-/ absolute / metric / decimal}
; #@! TF.CreationDate,2026-06-12T02:28:05+05:00
; #@! TF.GenerationSoftware,Kicad,Pcbnew,10.0.3
; #@! TF.FileFunction,Plated,1,2,PTH
FMAT,2
METRIC
; #@! TA.AperFunction,Plated,PTH,ViaDrill
T1C0.200
; #@! TA.AperFunction,Plated,PTH,ViaDrill
T2C0.400
; #@! TA.AperFunction,Plated,PTH,ComponentDrill
T3C0.750
; #@! TA.AperFunction,Plated,PTH,ComponentDrill
T4C1.000
%
G90
G05
T1
X149.55Y-107.25
X149.55Y-107.95
X149.575Y-106.5
X149.6Y-104.35
X149.6Y-104.875
X149.6Y-105.875
X149.904Y-105.367
X150.225Y-104.35
X150.225Y-104.875
X150.225Y-105.875
X150.225Y-106.525
X150.225Y-107.25
X150.25Y-107.95
T2
X129.0Y-105.5
X129.0Y-107.0
X129.0Y-108.5
X129.217Y-110.013
X130.5Y-105.5
X130.5Y-107.0
X130.5Y-108.5
X130.5Y-110.4
X132.0Y-105.5
X132.0Y-107.0
X132.0Y-108.5
X132.0Y-110.4
X133.375Y-107.025
X133.5Y-108.5
X133.5Y-110.4
X134.7Y-107.0
X135.0Y-108.5
X135.0Y-110.4
X135.5Y-106.0
X136.478Y-110.34
X136.5Y-107.5
X136.5Y-109.0
X142.0Y-97.5
X142.0Y-99.0
X143.5Y-97.5
X145.0Y-97.5
X145.5Y-109.0
X145.5Y-110.4
X147.0Y-109.0
X147.0Y-110.4
X148.5Y-109.0
X148.5Y-110.4
X150.0Y-103.5
X150.0Y-109.0
X150.0Y-110.4
X150.5Y-97.5
X150.5Y-99.0
X151.342Y-103.463
X151.5Y-109.0
X151.5Y-110.4
X152.0Y-97.5
X152.0Y-99.0
X153.0Y-102.5
X153.5Y-97.5
X153.5Y-99.0
X157.647Y-99.708
X160.5Y-103.0
X160.5Y-104.0
X162.0Y-103.0
X162.0Y-104.0
T3
X133.915Y-103.52
X133.915Y-105.52
T4
X158.817Y-103.571
X158.817Y-106.111
M30
